<svg version="1.1" id="Layer_1" xmlns="http://www.w3.org/2000/svg" xmlns:xlink="http://www.w3.org/1999/xlink" x="0px" y="0px"
	 width="100%" viewBox="0 0 507 507" enable-background="new 0 0 507 507" xml:space="preserve">
<path fill="#D71E00" opacity="1.000000" stroke="none" 
	d="
M237.000000,0.999998 
	C248.687561,1.000000 260.375122,1.000000 272.436584,1.424811 
	C277.254181,2.561596 281.732697,3.105313 286.135284,4.016150 
	C301.125641,7.117469 316.296600,9.605554 331.011383,13.714524 
	C350.097412,19.044132 367.971832,27.519173 384.893616,37.948792 
	C403.262665,49.270428 420.463654,62.013313 434.815704,78.134827 
	C427.790436,84.917442 420.980988,91.453239 414.365753,98.180077 
	C403.344177,109.387627 392.555542,120.825699 381.461853,131.960510 
	C373.152222,140.300903 364.428436,148.227173 356.047821,156.498749 
	C343.558624,168.825500 331.187592,181.272415 318.817108,193.718719 
	C316.019501,196.533463 313.430847,199.555908 310.481567,202.226471 
	C305.450806,190.467972 300.689270,178.963791 295.916992,167.464050 
	C289.172058,151.210709 282.411591,134.963791 275.673645,118.707542 
	C273.282074,112.937576 269.868988,108.281075 263.343750,106.755600 
	C253.870346,104.540878 246.510925,108.893242 242.096786,119.507980 
	C214.049408,186.953705 186.040833,254.415588 157.969437,321.851318 
	C149.749100,341.598999 141.366074,361.278961 132.728775,381.068909 
	C124.504547,388.837402 116.606453,396.524231 108.714882,404.217712 
	C104.827507,408.007538 100.903542,411.761505 97.082199,415.617004 
	C90.676422,422.080048 84.339500,428.611328 77.671921,434.962402 
	C62.067554,420.194885 48.764416,403.841858 38.443424,385.461761 
	C30.156385,370.703857 22.755291,355.296570 16.578978,339.543121 
	C8.551644,319.068451 4.059929,297.566101 2.911760,275.475098 
	C2.867278,274.619263 1.663558,273.823669 1.000002,273.000000 
	C1.000000,261.312439 1.000000,249.624878 1.424815,237.563416 
	C2.229301,236.345642 2.838560,235.531647 2.952872,234.653229 
	C4.010842,226.523346 4.706184,218.336899 6.030858,210.252747 
	C10.702377,181.743591 20.630575,155.103714 35.010128,130.077621 
	C45.014389,112.666260 56.751923,96.529327 70.580811,81.976021 
	C82.064499,69.890770 94.504395,58.916725 108.132408,49.196369 
	C127.165474,35.620785 147.473511,24.665009 169.477142,16.794378 
	C190.544693,9.258580 212.111740,4.153364 234.524155,2.912183 
	C235.382095,2.864670 236.176163,1.663553 237.000000,0.999998 
z"/>
<path fill="#C21901" opacity="1.000000" stroke="none" 
	d="
M310.746033,202.482758 
	C313.430847,199.555908 316.019501,196.533463 318.817108,193.718719 
	C331.187592,181.272415 343.558624,168.825500 356.047821,156.498749 
	C364.428436,148.227173 373.152222,140.300903 381.461853,131.960510 
	C392.555542,120.825699 403.344177,109.387627 414.365753,98.180077 
	C420.980988,91.453239 427.790436,84.917442 435.115112,78.272011 
	C443.107422,86.645866 451.213226,94.526947 457.727081,103.556427 
	C468.808899,118.917969 478.735931,135.013229 486.388916,152.533722 
	C496.343933,175.324387 503.184570,198.824326 506.081940,223.506927 
	C506.186859,224.400696 507.336975,225.171753 508.000000,226.000000 
	C508.000000,245.020889 508.000000,264.041779 507.582367,283.441162 
	C506.110229,289.362213 504.981995,294.891937 504.014160,300.449585 
	C500.121155,322.803528 493.041748,344.118134 483.149750,364.509583 
	C475.259399,380.774780 465.536072,395.845428 454.542908,410.231964 
	C440.725159,428.315002 424.612579,444.067505 406.559784,457.620209 
	C391.406342,468.996338 375.073059,478.660461 357.542053,486.347046 
	C334.740845,496.344360 311.215729,503.163177 286.516296,506.081543 
	C285.614563,506.188110 284.835999,507.336914 284.000000,508.000000 
	C264.979095,508.000000 245.958206,508.000000 226.550201,507.582031 
	C220.631912,506.110046 215.114670,504.975433 209.567093,504.016174 
	C187.247437,500.156708 165.738953,493.511963 145.695374,483.070679 
	C131.248169,475.544708 117.185539,467.066406 103.801437,457.786804 
	C94.448334,451.302002 86.531792,442.745209 77.973602,435.113892 
	C84.339500,428.611328 90.676422,422.080048 97.082199,415.617004 
	C100.903542,411.761505 104.827507,408.007538 108.714882,404.217712 
	C116.606453,396.524231 124.504547,388.837402 132.897308,381.477325 
	C143.658356,381.948975 153.936264,381.818695 164.179596,382.351990 
	C169.061066,382.606140 171.304581,381.155090 173.122589,376.458679 
	C181.478607,354.872742 190.328979,333.478180 199.340454,311.951843 
	C203.920425,308.042938 208.182953,304.220032 212.398178,300.345673 
	C217.942017,295.250183 223.448654,290.114227 229.294952,285.094910 
	C263.803162,312.809814 297.978943,340.436310 332.180939,368.030243 
	C337.748047,372.521729 343.167755,377.268524 349.118469,381.195862 
	C359.703827,388.181946 373.772247,382.884094 376.298706,370.662781 
	C377.198761,366.308929 376.110382,360.989166 374.385712,356.736420 
	C361.967041,326.113220 349.116028,295.665649 336.474121,265.132568 
	C327.837952,244.274216 319.317963,223.367722 310.746033,202.482758 
z"/>
<path fill="#000000" opacity="1.000000" stroke="none" 
	d="
M236.531342,0.999998 
	C236.176163,1.663553 235.382095,2.864670 234.524155,2.912183 
	C212.111740,4.153364 190.544693,9.258580 169.477142,16.794378 
	C147.473511,24.665009 127.165474,35.620785 108.132408,49.196369 
	C94.504395,58.916725 82.064499,69.890770 70.580811,81.976021 
	C56.751923,96.529327 45.014389,112.666260 35.010128,130.077621 
	C20.630575,155.103714 10.702377,181.743591 6.030858,210.252747 
	C4.706184,218.336899 4.010842,226.523346 2.952872,234.653229 
	C2.838560,235.531647 2.229301,236.345642 1.424815,237.094757 
	C1.000000,158.406281 1.000000,79.812576 1.000000,1.000000 
	C79.354095,1.000000 157.708389,1.000000 236.531342,0.999998 
z"/>
<path fill="#000000" opacity="1.000000" stroke="none" 
	d="
M508.000000,225.531342 
	C507.336975,225.171753 506.186859,224.400696 506.081940,223.506927 
	C503.184570,198.824326 496.343933,175.324387 486.388916,152.533722 
	C478.735931,135.013229 468.808899,118.917969 457.727081,103.556427 
	C451.213226,94.526947 443.107422,86.645866 435.418274,78.111069 
	C420.463654,62.013313 403.262665,49.270428 384.893616,37.948792 
	C367.971832,27.519173 350.097412,19.044132 331.011383,13.714524 
	C316.296600,9.605554 301.125641,7.117469 286.135284,4.016150 
	C281.732697,3.105313 277.254181,2.561596 272.905212,1.424811 
	C351.258789,1.000000 429.517548,1.000000 508.000000,1.000000 
	C508.000000,75.687408 508.000000,150.375046 508.000000,225.531342 
z"/>
<path fill="#000000" opacity="1.000000" stroke="none" 
	d="
M77.671921,434.962402 
	C86.531792,442.745209 94.448334,451.302002 103.801437,457.786804 
	C117.185539,467.066406 131.248169,475.544708 145.695374,483.070679 
	C165.738953,493.511963 187.247437,500.156708 209.567093,504.016174 
	C215.114670,504.975433 220.631912,506.110046 226.081543,507.582031 
	C151.071381,508.000000 76.142754,508.000000 1.000000,508.000000 
	C1.000000,429.979248 1.000000,351.958282 1.000002,273.468658 
	C1.663558,273.823669 2.867278,274.619263 2.911760,275.475098 
	C4.059929,297.566101 8.551644,319.068451 16.578978,339.543121 
	C22.755291,355.296570 30.156385,370.703857 38.443424,385.461761 
	C48.764416,403.841858 62.067554,420.194885 77.671921,434.962402 
z"/>
<path fill="#000000" opacity="1.000000" stroke="none" 
	d="
M284.468658,508.000000 
	C284.835999,507.336914 285.614563,506.188110 286.516296,506.081543 
	C311.215729,503.163177 334.740845,496.344360 357.542053,486.347046 
	C375.073059,478.660461 391.406342,468.996338 406.559784,457.620209 
	C424.612579,444.067505 440.725159,428.315002 454.542908,410.231964 
	C465.536072,395.845428 475.259399,380.774780 483.149750,364.509583 
	C493.041748,344.118134 500.121155,322.803528 504.014160,300.449585 
	C504.981995,294.891937 506.110229,289.362213 507.582367,283.909851 
	C508.000000,358.593689 508.000000,433.187408 508.000000,508.000000 
	C433.645905,508.000000 359.291626,508.000000 284.468658,508.000000 
z"/>
<path fill="#FFFDFD" opacity="1.000000" stroke="none" 
	d="
M310.481567,202.226471 
	C319.317963,223.367722 327.837952,244.274216 336.474121,265.132568 
	C349.116028,295.665649 361.967041,326.113220 374.385712,356.736420 
	C376.110382,360.989166 377.198761,366.308929 376.298706,370.662781 
	C373.772247,382.884094 359.703827,388.181946 349.118469,381.195862 
	C343.167755,377.268524 337.748047,372.521729 332.180939,368.030243 
	C297.978943,340.436310 263.803162,312.809814 229.145142,284.797852 
	C224.006805,280.654999 219.341980,276.908478 214.193680,272.773682 
	C209.029587,286.112946 204.015793,299.063934 199.001984,312.014954 
	C190.328979,333.478180 181.478607,354.872742 173.122589,376.458679 
	C171.304581,381.155090 169.061066,382.606140 164.179596,382.351990 
	C153.936264,381.818695 143.658356,381.948975 133.226135,381.398407 
	C141.366074,361.278961 149.749100,341.598999 157.969437,321.851318 
	C186.040833,254.415588 214.049408,186.953705 242.096786,119.507980 
	C246.510925,108.893242 253.870346,104.540878 263.343750,106.755600 
	C269.868988,108.281075 273.282074,112.937576 275.673645,118.707542 
	C282.411591,134.963791 289.172058,151.210709 295.916992,167.464050 
	C300.689270,178.963791 305.450806,190.467972 310.481567,202.226471 
M285.969147,226.274139 
	C277.199768,204.611450 268.430389,182.948761 259.267090,160.313004 
	C247.938217,188.665665 236.945526,216.176895 225.830551,243.994217 
	C234.317719,250.510361 242.605133,256.873138 251.207870,263.818115 
	C274.987457,282.549042 298.767059,301.279968 322.546661,320.010925 
	C322.857300,317.541565 322.297211,315.843323 321.630005,314.188232 
	C318.088318,305.402405 314.546509,296.616486 310.955170,287.850861 
	C302.644470,267.566101 294.305267,247.293015 285.969147,226.274139 
z"/>
<path fill="#D72306" opacity="1.000000" stroke="none" 
	d="
M199.340454,311.951843 
	C204.015793,299.063934 209.029587,286.112946 214.193680,272.773682 
	C219.341980,276.908478 224.006805,280.654999 228.821457,284.698608 
	C223.448654,290.114227 217.942017,295.250183 212.398178,300.345673 
	C208.182953,304.220032 203.920425,308.042938 199.340454,311.951843 
z"/>
<path fill="#D72002" opacity="1.000000" stroke="none" 
	d="
M250.892548,263.235901 
	C242.605133,256.873138 234.317719,250.510361 225.830551,243.994217 
	C236.945526,216.176895 247.938217,188.665665 259.267090,160.313004 
	C268.430389,182.948761 277.199768,204.611450 285.729675,226.864044 
	C284.184692,228.941940 282.974365,230.527939 281.558258,231.901901 
	C272.551056,240.641174 263.458649,249.293076 254.500565,258.082062 
	C253.028946,259.525879 252.081985,261.504456 250.892548,263.235901 
z"/>
<path fill="#C31B03" opacity="1.000000" stroke="none" 
	d="
M251.050201,263.527008 
	C252.081985,261.504456 253.028946,259.525879 254.500565,258.082062 
	C263.458649,249.293076 272.551056,240.641174 281.558258,231.901901 
	C282.974365,230.527939 284.184692,228.941940 285.733887,227.234589 
	C294.305267,247.293015 302.644470,267.566101 310.955170,287.850861 
	C314.546509,296.616486 318.088318,305.402405 321.630005,314.188232 
	C322.297211,315.843323 322.857300,317.541565 322.546661,320.010925 
	C298.767059,301.279968 274.987457,282.549042 251.050201,263.527008 
z"/>
</svg>