<svg version="1.1" id="Layer_1" xmlns="http://www.w3.org/2000/svg" xmlns:xlink="http://www.w3.org/1999/xlink" x="0px" y="0px"
	 width="100%" viewBox="0 0 96 96" enable-background="new 0 0 96 96" xml:space="preserve">
<path fill="#000000" opacity="1.000000" stroke="none" 
	d="
M1.000000,55.000000 
	C1.000000,37.039062 1.000000,19.078125 1.000000,1.058594 
	C32.891403,1.058594 64.782936,1.058594 97.000000,1.058594 
	C97.000000,18.019510 97.000000,35.041096 96.553726,52.531059 
	C90.861183,53.949944 85.647301,55.220482 80.358994,55.755787 
	C75.614235,56.236069 73.869331,58.127151 75.441750,62.814072 
	C76.658966,62.930813 77.905540,63.050369 79.338058,63.187759 
	C59.603962,79.115196 27.810455,78.184166 8.928784,58.195045 
	C6.467867,55.589798 4.216821,54.652824 1.000000,55.000000 
M37.911766,42.676792 
	C38.272110,43.924591 38.352295,45.367851 39.055805,46.376240 
	C40.229797,48.059006 41.802559,49.463562 43.207439,50.985249 
	C44.595146,49.408878 46.386524,48.030418 47.278534,46.211021 
	C48.714642,43.281826 49.557262,40.061657 51.094528,35.706909 
	C52.701477,40.686172 53.632504,44.448517 55.184071,47.934685 
	C55.781178,49.276299 57.682076,50.430298 59.201763,50.803829 
	C59.967468,50.992039 61.745075,49.441772 62.148563,48.341499 
	C64.884834,40.880016 67.534798,33.375698 69.789894,25.760042 
	C70.162079,24.503120 68.458038,22.631401 67.713516,21.043806 
	C66.130249,21.984053 63.815266,22.551516 63.108696,23.938408 
	C61.380432,27.330738 60.395432,31.101738 58.789280,35.627712 
	C57.302326,31.342245 56.448620,27.912395 54.903488,24.829035 
	C54.105671,23.236965 52.223274,21.649851 50.549599,21.256010 
	C49.675644,21.050354 47.737125,23.228016 47.077847,24.689417 
	C45.635754,27.886059 44.703346,31.312635 43.193981,35.722801 
	C41.824368,31.652683 40.840393,28.457314 39.669468,25.331985 
	C38.675831,22.679863 37.235516,19.662184 33.911266,21.340462 
	C32.803623,21.899664 32.554302,25.567780 33.019703,27.555437 
	C34.165592,32.449322 35.953926,37.192772 37.911766,42.676792 
M27.260374,39.723854 
	C27.173458,36.744846 26.863955,33.751797 27.050730,30.790051 
	C27.345970,26.108301 25.763063,22.600988 21.193130,21.175173 
	C15.525631,19.406919 7.704586,21.286932 5.787563,24.924107 
	C5.071570,26.282560 5.119622,28.514961 5.762880,29.915487 
	C6.074449,30.593843 8.675930,30.685913 10.045951,30.318123 
	C13.129267,29.490393 16.091135,28.210260 19.102428,27.114248 
	C19.531946,27.890991 19.961462,28.667736 20.390980,29.444479 
	C19.308485,30.295694 18.347923,31.497017 17.118141,31.925312 
	C14.550004,32.819717 11.761587,33.088623 9.205001,34.007660 
	C4.645244,35.646801 4.803742,39.580193 4.988768,43.479954 
	C5.160129,47.091709 6.966383,49.463341 10.479705,49.911472 
	C13.587596,50.307884 16.781071,50.008175 19.935562,50.073593 
	C21.900455,50.114346 23.862528,50.323483 25.826981,50.342674 
	C27.331596,50.357368 30.034094,50.478210 30.134174,50.058426 
	C30.543066,48.343327 30.416599,46.374714 29.984709,44.623417 
	C29.614685,43.122986 28.559679,41.791489 27.260374,39.723854 
M75.098709,49.246521 
	C81.195847,53.781761 90.958939,50.941704 93.047119,44.025372 
	C94.639885,38.749916 91.879433,34.585217 85.414696,32.077885 
	C84.130417,31.579781 83.162445,30.266148 82.048615,29.328587 
	C83.349068,28.555237 84.594925,27.655293 85.972679,27.061209 
	C86.676208,26.757851 87.616318,27.008896 88.449387,26.999285 
	C93.949089,26.935837 94.202194,26.553310 92.229668,20.999981 
	C89.641693,20.999981 86.974724,21.133556 84.325974,20.970808 
	C79.537933,20.676613 76.257233,22.637470 75.088905,27.296797 
	C73.919083,31.962078 76.172501,36.068359 80.674728,38.218445 
	C81.841171,38.775494 83.150421,39.068542 84.243912,39.730801 
	C84.955383,40.161697 85.995117,41.291538 85.837280,41.669250 
	C85.460197,42.571602 84.571938,43.631901 83.688210,43.865833 
	C82.283714,44.237617 80.702766,44.114902 79.217705,43.975338 
	C75.879921,43.661652 74.610664,45.182713 75.098709,49.246521 
z"/>
<path fill="#000000" opacity="1.000000" stroke="none" 
	d="
M97.000000,65.000000 
	C97.000000,75.637962 97.000000,86.275925 97.000000,96.956940 
	C65.114861,96.956940 33.229656,96.956940 1.000000,96.956940 
	C1.000000,85.648094 1.000000,74.292709 1.215369,62.126900 
	C2.312881,62.067245 3.251162,62.761703 4.068915,63.577045 
	C22.242849,81.697334 43.905926,84.993393 67.582672,77.815193 
	C74.301247,75.778290 80.413750,71.742302 87.001610,68.526741 
	C87.001610,69.775536 86.700844,71.046257 87.076218,72.068764 
	C87.567642,73.407387 88.447716,75.382599 89.427879,75.553810 
	C90.511368,75.743050 92.214211,74.446671 93.060371,73.346077 
	C93.881264,72.278343 93.798080,70.563683 94.402573,69.268814 
	C95.102905,67.768623 96.120262,66.416435 97.000000,65.000000 
z"/>
<path fill="#E0840B" opacity="1.000000" stroke="none" 
	d="
M97.000000,64.539368 
	C96.120262,66.416435 95.102905,67.768623 94.402573,69.268814 
	C93.798080,70.563683 93.881264,72.278343 93.060371,73.346077 
	C92.214211,74.446671 90.511368,75.743050 89.427879,75.553810 
	C88.447716,75.382599 87.567642,73.407387 87.076218,72.068764 
	C86.700844,71.046257 87.001610,69.775536 87.001610,68.526741 
	C80.413750,71.742302 74.301247,75.778290 67.582672,77.815193 
	C43.905926,84.993393 22.242849,81.697334 4.068915,63.577045 
	C3.251162,62.761703 2.312881,62.067245 1.215369,61.658241 
	C1.000000,59.958332 1.000000,57.916668 1.000000,55.437500 
	C4.216821,54.652824 6.467867,55.589798 8.928784,58.195045 
	C27.810455,78.184166 59.603962,79.115196 79.338058,63.187759 
	C77.905540,63.050369 76.658966,62.930813 75.441750,62.814072 
	C73.869331,58.127151 75.614235,56.236069 80.358994,55.755787 
	C85.647301,55.220482 90.861183,53.949944 96.553726,52.999718 
	C97.000000,56.692909 97.000000,60.385818 97.000000,64.539368 
z"/>
<path fill="#E0840B" opacity="1.000000" stroke="none" 
	d="
M37.697845,42.336754 
	C35.953926,37.192772 34.165592,32.449322 33.019703,27.555437 
	C32.554302,25.567780 32.803623,21.899664 33.911266,21.340462 
	C37.235516,19.662184 38.675831,22.679863 39.669468,25.331985 
	C40.840393,28.457314 41.824368,31.652683 43.193981,35.722801 
	C44.703346,31.312635 45.635754,27.886059 47.077847,24.689417 
	C47.737125,23.228016 49.675644,21.050354 50.549599,21.256010 
	C52.223274,21.649851 54.105671,23.236965 54.903488,24.829035 
	C56.448620,27.912395 57.302326,31.342245 58.789280,35.627712 
	C60.395432,31.101738 61.380432,27.330738 63.108696,23.938408 
	C63.815266,22.551516 66.130249,21.984053 67.713516,21.043808 
	C68.458038,22.631401 70.162079,24.503120 69.789894,25.760042 
	C67.534798,33.375698 64.884834,40.880016 62.148563,48.341499 
	C61.745075,49.441772 59.967468,50.992039 59.201763,50.803829 
	C57.682076,50.430298 55.781178,49.276299 55.184071,47.934685 
	C53.632504,44.448517 52.701477,40.686172 51.094528,35.706909 
	C49.557262,40.061657 48.714642,43.281826 47.278534,46.211021 
	C46.386524,48.030418 44.595146,49.408878 43.207439,50.985249 
	C41.802559,49.463562 40.229797,48.059006 39.055805,46.376240 
	C38.352295,45.367851 38.272110,43.924591 37.697845,42.336754 
z"/>
<path fill="#E0840B" opacity="1.000000" stroke="none" 
	d="
M27.533995,40.054565 
	C28.559679,41.791489 29.614685,43.122986 29.984709,44.623417 
	C30.416599,46.374714 30.543066,48.343327 30.134174,50.058426 
	C30.034094,50.478210 27.331596,50.357368 25.826981,50.342674 
	C23.862528,50.323483 21.900455,50.114346 19.935562,50.073593 
	C16.781071,50.008175 13.587596,50.307884 10.479705,49.911472 
	C6.966383,49.463341 5.160129,47.091709 4.988768,43.479954 
	C4.803742,39.580193 4.645244,35.646801 9.205001,34.007660 
	C11.761587,33.088623 14.550004,32.819717 17.118141,31.925312 
	C18.347923,31.497017 19.308485,30.295694 20.390980,29.444479 
	C19.961462,28.667736 19.531946,27.890991 19.102428,27.114248 
	C16.091135,28.210260 13.129267,29.490393 10.045951,30.318123 
	C8.675930,30.685913 6.074449,30.593843 5.762880,29.915487 
	C5.119622,28.514961 5.071570,26.282560 5.787563,24.924107 
	C7.704586,21.286932 15.525631,19.406919 21.193130,21.175173 
	C25.763063,22.600988 27.345970,26.108301 27.050730,30.790051 
	C26.863955,33.751797 27.173458,36.744846 27.533995,40.054565 
M13.066287,43.539677 
	C15.450172,43.093334 17.834057,42.646996 20.217943,42.200653 
	C20.110039,41.340801 20.002134,40.480949 19.894230,39.621098 
	C17.875023,39.621098 15.792566,39.341038 13.871346,39.774925 
	C13.210223,39.924240 12.951437,41.855064 13.066287,43.539677 
z"/>
<path fill="#E0840B" opacity="1.000000" stroke="none" 
	d="
M75.057770,48.810242 
	C74.610664,45.182713 75.879921,43.661652 79.217705,43.975338 
	C80.702766,44.114902 82.283714,44.237617 83.688210,43.865833 
	C84.571938,43.631901 85.460197,42.571602 85.837280,41.669250 
	C85.995117,41.291538 84.955383,40.161697 84.243912,39.730801 
	C83.150421,39.068542 81.841171,38.775494 80.674728,38.218445 
	C76.172501,36.068359 73.919083,31.962078 75.088905,27.296797 
	C76.257233,22.637470 79.537933,20.676613 84.325974,20.970808 
	C86.974724,21.133556 89.641693,20.999981 92.229668,20.999981 
	C94.202194,26.553310 93.949089,26.935837 88.449387,26.999285 
	C87.616318,27.008896 86.676208,26.757851 85.972679,27.061209 
	C84.594925,27.655293 83.349068,28.555237 82.048615,29.328587 
	C83.162445,30.266148 84.130417,31.579781 85.414696,32.077885 
	C91.879433,34.585217 94.639885,38.749916 93.047119,44.025372 
	C90.958939,50.941704 81.195847,53.781761 75.057770,48.810242 
z"/>
<path fill="#000000" opacity="1.000000" stroke="none" 
	d="
M12.787570,43.255863 
	C12.951437,41.855064 13.210223,39.924240 13.871346,39.774925 
	C15.792566,39.341038 17.875023,39.621098 19.894230,39.621098 
	C20.002134,40.480949 20.110039,41.340801 20.217943,42.200653 
	C17.834057,42.646996 15.450172,43.093334 12.787570,43.255863 
z"/>
</svg>