<svg version="1.1" id="Layer_1" xmlns="http://www.w3.org/2000/svg" xmlns:xlink="http://www.w3.org/1999/xlink" x="0px" y="0px"
	 width="100%" viewBox="0 0 64 64" enable-background="new 0 0 64 64" xml:space="preserve">
<path fill="#000000" opacity="1.000000" stroke="none" 
	d="
M42.000156,65.000000 
	C28.000101,65.000000 14.500102,65.000000 1.000078,65.000000 
	C1.000052,43.666702 1.000052,22.333408 1.000026,1.000084 
	C22.333292,1.000056 43.666584,1.000056 64.999908,1.000028 
	C64.999939,22.333290 64.999939,43.666580 64.999969,64.999939 
	C57.500072,65.000000 50.000141,65.000000 42.000156,65.000000 
M48.990402,48.139294 
	C48.990402,38.553513 48.990402,28.967733 48.990402,18.330933 
	C44.030994,20.562551 38.024799,15.677945 35.156979,22.983730 
	C35.030960,23.304766 31.681261,22.702160 30.071791,21.990301 
	C28.797806,21.426828 27.989349,19.314949 26.800661,19.151348 
	C23.744596,18.730736 20.592102,19.010738 17.296043,19.010738 
	C17.296043,29.229593 17.296043,38.939907 17.296043,48.931290 
	C21.419010,48.870560 25.056000,48.586372 27.203672,53.324078 
	C28.457355,56.089668 37.729019,56.025955 38.868176,53.257603 
	C41.092983,47.850891 45.246037,49.245270 48.846249,49.602116 
	C42.765068,56.621056 34.296925,57.763813 26.582609,55.469986 
	C16.340216,52.424450 8.367864,44.135521 9.990525,29.213512 
	C10.907583,20.780241 20.950375,9.666522 30.767103,9.937205 
	C33.487408,10.012216 35.729984,9.010880 34.528069,4.857088 
	C31.376616,5.095233 27.978584,4.801948 24.915659,5.678981 
	C11.870437,9.414329 5.425771,19.338264 4.889379,33.743633 
	C4.242595,51.113674 21.150938,65.788513 41.513760,60.122303 
	C61.665245,54.514912 66.555534,30.622982 55.636940,15.263046 
	C54.280060,13.354232 53.177799,11.264422 51.994957,9.319967 
	C49.844906,9.319967 47.585094,9.319967 45.188789,9.319967 
	C45.188789,11.921162 45.188789,14.202254 45.188789,16.745419 
	C52.645008,16.376883 54.434380,22.182938 55.464905,27.250206 
	C57.113316,35.355721 56.502686,43.425327 48.990402,48.139294 
z"/>
<path fill="#4AD82D" opacity="1.000000" stroke="none" 
	d="
M48.953548,49.089203 
	C56.502686,43.425327 57.113316,35.355721 55.464905,27.250206 
	C54.434380,22.182938 52.645008,16.376883 45.188789,16.745419 
	C45.188789,14.202254 45.188789,11.921162 45.188789,9.319967 
	C47.585094,9.319967 49.844906,9.319967 51.994957,9.319967 
	C53.177799,11.264422 54.280060,13.354232 55.636940,15.263046 
	C66.555534,30.622982 61.665245,54.514912 41.513760,60.122303 
	C21.150938,65.788513 4.242595,51.113674 4.889379,33.743633 
	C5.425771,19.338264 11.870437,9.414329 24.915659,5.678981 
	C27.978584,4.801948 31.376616,5.095233 34.528069,4.857088 
	C35.729984,9.010880 33.487408,10.012216 30.767103,9.937205 
	C20.950375,9.666522 10.907583,20.780241 9.990525,29.213512 
	C8.367864,44.135521 16.340216,52.424450 26.582609,55.469986 
	C34.296925,57.763813 42.765068,56.621056 48.933929,49.308865 
	C49.021610,49.015614 48.953548,49.089203 48.953548,49.089203 
z"/>
<path fill="#4AD82D" opacity="1.000000" stroke="none" 
	d="
M49.058437,48.981617 
	C45.246037,49.245270 41.092983,47.850891 38.868176,53.257603 
	C37.729019,56.025955 28.457355,56.089668 27.203672,53.324078 
	C25.056000,48.586372 21.419010,48.870560 17.296043,48.931290 
	C17.296043,38.939907 17.296043,29.229593 17.296043,19.010738 
	C20.592102,19.010738 23.744596,18.730736 26.800661,19.151348 
	C27.989349,19.314949 28.797806,21.426828 30.071791,21.990301 
	C31.681261,22.702160 35.030960,23.304766 35.156979,22.983730 
	C38.024799,15.677945 44.030994,20.562551 48.990402,18.330933 
	C48.990402,28.967733 48.990402,38.553513 48.971977,48.614250 
	C48.953548,49.089203 49.021610,49.015614 49.058437,48.981617 
M44.972191,43.143307 
	C44.972191,36.528187 44.972191,29.913067 44.972191,22.033346 
	C42.956184,23.329105 41.429935,23.819036 40.692997,24.865055 
	C36.543411,30.754978 29.406204,30.830381 25.410065,25.030788 
	C24.658585,23.940166 23.084888,23.416082 21.336327,22.266001 
	C21.336327,30.644493 21.336327,37.702503 21.336327,44.952568 
	C25.279715,44.989571 29.328434,44.146904 30.903015,49.080860 
	C31.024960,49.462982 34.172184,49.413727 35.461441,48.722359 
	C36.516571,48.156540 36.897655,46.333763 37.300251,45.584385 
	C40.182137,45.005001 42.519405,44.535110 44.972191,43.143307 
z"/>
<path fill="#000000" opacity="1.000000" stroke="none" 
	d="
M44.914429,43.604263 
	C42.519405,44.535110 40.182137,45.005001 37.300251,45.584385 
	C36.897655,46.333763 36.516571,48.156540 35.461441,48.722359 
	C34.172184,49.413727 31.024960,49.462982 30.903015,49.080860 
	C29.328434,44.146904 25.279715,44.989571 21.336327,44.952568 
	C21.336327,37.702503 21.336327,30.644493 21.336327,22.266001 
	C23.084888,23.416082 24.658585,23.940166 25.410065,25.030788 
	C29.406204,30.830381 36.543411,30.754978 40.692997,24.865055 
	C41.429935,23.819036 42.956184,23.329105 44.972191,22.033346 
	C44.972191,29.913067 44.972191,36.528187 44.914429,43.604263 
M23.930630,34.607414 
	C22.315533,39.584332 25.477812,43.180099 30.059975,42.483799 
	C30.059975,38.711864 30.059975,35.060349 30.059975,30.373125 
	C28.109299,31.648323 26.276741,32.846306 23.930630,34.607414 
M42.921753,38.143456 
	C42.311619,33.203808 39.566078,30.901636 35.940475,31.535023 
	C35.940475,35.346840 35.940475,38.990723 35.940475,44.089287 
	C38.441334,42.122360 40.528187,40.481049 42.921753,38.143456 
z"/>
<path fill="#4AD82C" opacity="1.000000" stroke="none" 
	d="
M24.187407,34.325851 
	C26.276741,32.846306 28.109299,31.648323 30.059975,30.373125 
	C30.059975,35.060349 30.059975,38.711864 30.059975,42.483799 
	C25.477812,43.180099 22.315533,39.584332 24.187407,34.325851 
z"/>
<path fill="#4AD82C" opacity="1.000000" stroke="none" 
	d="
M42.768394,38.491596 
	C40.528187,40.481049 38.441334,42.122360 35.940475,44.089287 
	C35.940475,38.990723 35.940475,35.346840 35.940475,31.535023 
	C39.566078,30.901636 42.311619,33.203808 42.768394,38.491596 
z"/>
</svg>