<svg version="1.1" id="Layer_1" xmlns="http://www.w3.org/2000/svg" xmlns:xlink="http://www.w3.org/1999/xlink" x="0px" y="0px"
	 width="100%" viewBox="0 0 512 512" enable-background="new 0 0 512 512" xml:space="preserve">
<path fill="#000001" opacity="1.000000" stroke="none" 
	d="
M1.000000,195.000000 
	C1.000000,130.000000 1.000000,65.500000 1.000000,1.000000 
	C171.666672,1.000000 342.333344,1.000000 513.000000,1.000000 
	C513.000000,171.666672 513.000000,342.333344 513.000000,513.000000 
	C342.333344,513.000000 171.666672,513.000000 1.000000,513.000000 
	C1.000000,407.166656 1.000000,301.333344 1.000000,195.000000 
M292.115112,363.145630 
	C283.828796,361.407379 274.295441,360.396332 270.688995,351.770233 
	C267.131561,343.261292 262.050446,341.196747 253.687576,341.858246 
	C249.543396,342.186035 247.784943,343.625275 245.881912,346.993958 
	C243.596222,351.040009 240.898331,355.521179 237.165253,357.943542 
	C229.230621,363.092255 220.374725,365.197235 211.286545,360.045258 
	C208.798553,358.634827 206.962463,359.441589 205.278976,361.524445 
	C204.134018,362.941040 202.888290,364.392365 201.394928,365.390198 
	C196.207565,368.856445 196.112686,372.966522 198.216675,378.529419 
	C202.477722,389.795654 196.962601,403.003052 185.843613,407.985413 
	C180.508087,410.376251 178.966995,413.375427 178.766235,419.145538 
	C178.518311,426.271118 180.505798,430.149292 187.289307,432.945770 
	C196.516525,436.749573 202.470108,451.108826 198.646545,460.323822 
	C195.842468,467.081848 196.594910,471.852936 202.559647,475.878754 
	C202.830521,476.061615 203.081787,476.312225 203.262421,476.584259 
	C206.134949,480.910828 209.559341,480.986053 214.290146,479.199677 
	C225.047775,475.137543 237.106750,479.078369 243.952118,488.814606 
	C246.005341,496.279175 250.589050,499.738525 258.472748,498.017303 
	C258.949219,497.913269 259.484528,497.921417 259.964844,498.016663 
	C264.293701,498.875122 266.331696,496.778442 268.155334,492.949585 
	C274.591156,479.437103 286.479187,474.444397 300.483734,479.429138 
	C304.691437,480.926788 307.027100,480.040161 310.406158,477.240692 
	C316.737000,471.995697 318.513031,466.926575 315.024200,459.049500 
	C311.709412,451.565277 317.617798,436.543213 325.204620,433.755371 
	C333.895813,430.561707 335.875580,425.219696 335.176056,416.831909 
	C334.834717,412.739166 333.735016,410.467682 330.042999,409.084198 
	C323.672913,406.697083 319.633148,402.438660 316.794556,395.906647 
	C313.656677,388.685944 313.514587,382.215485 316.711700,375.359131 
	C318.041718,372.506897 317.380951,370.593018 315.358032,367.915588 
	C309.541443,360.217194 303.031555,357.727814 294.370697,362.821045 
	C293.954865,363.065613 293.419739,363.107330 292.115112,363.145630 
M336.081940,186.951416 
	C330.584625,186.941650 325.087311,186.923599 319.589996,186.923416 
	C271.112762,186.921814 222.635529,186.904724 174.158340,186.938889 
	C163.792450,186.946198 156.039093,193.748016 155.962921,203.477203 
	C155.764664,228.796753 155.777954,254.119736 155.958984,279.439545 
	C156.024323,288.577850 163.498383,295.708252 172.645264,296.003845 
	C176.972122,296.143677 181.321564,296.260223 185.634857,295.983368 
	C191.792786,295.588074 196.563782,297.014099 197.710052,303.748108 
	C204.380096,303.748108 210.643173,303.748108 216.799088,303.748108 
	C219.488663,296.947784 220.817963,296.059143 228.066818,296.038086 
	C229.732681,296.033264 231.398590,296.039764 233.064468,296.036926 
	C267.710571,295.977905 302.356689,295.918304 337.870422,296.010712 
	C351.491455,296.081787 358.123779,289.545044 358.135101,275.961639 
	C358.154266,253.003601 358.153137,230.045532 358.135620,207.087494 
	C358.124939,193.092514 350.902191,186.285690 336.081940,186.951416 
M473.393677,42.158245 
	C460.803741,33.787720 448.213776,25.417198 435.612946,17.039440 
	C415.819244,30.227880 396.325012,43.297058 376.714722,56.189739 
	C374.016418,57.963737 373.039551,59.826817 373.058197,63.046307 
	C373.198975,87.369667 373.130920,111.694214 373.145325,136.018387 
	C373.146179,137.471039 373.295471,138.923584 373.384460,140.534760 
	C378.759460,140.534760 383.810272,140.534760 389.200928,140.534760 
	C389.200928,128.880676 389.589935,117.551430 389.087158,106.261894 
	C388.621277,95.801468 393.215515,88.849754 402.442932,85.116791 
	C424.400543,76.233818 446.586273,76.201088 468.569611,85.031525 
	C477.771088,88.727646 482.574127,95.496437 482.080170,106.046295 
	C481.545349,117.469307 481.959015,128.936737 481.959015,140.566345 
	C487.532593,140.566345 492.584229,140.566345 497.635651,140.566345 
	C497.792297,139.790237 497.971649,139.315613 497.972015,138.840836 
	C497.992126,113.017319 498.046448,87.193474 497.882050,61.371025 
	C497.872162,59.815529 496.461792,57.768646 495.098785,56.806271 
	C488.166412,51.911354 481.034790,47.298615 473.393677,42.158245 
M452.000763,257.982330 
	C451.063538,256.686981 450.395844,254.736176 449.138550,254.219116 
	C445.349487,252.660904 443.745483,250.048737 443.773834,246.118469 
	C443.808685,241.287170 443.966614,236.445953 443.727661,231.626053 
	C443.385101,224.716385 444.108154,218.515839 452.509888,216.218796 
	C446.682587,207.470245 441.302429,199.392944 435.598816,190.830093 
	C429.725983,199.652100 424.324493,207.766083 418.650116,216.290009 
	C425.693726,218.225479 427.707123,222.919113 427.705383,228.991669 
	C427.689117,285.804382 427.729248,342.617188 427.655701,399.429779 
	C427.643768,408.633240 423.990326,412.009064 414.768982,412.019012 
	C395.109467,412.040222 375.449921,412.026428 355.790375,412.026947 
	C354.015503,412.027008 352.240662,412.026978 350.387695,412.026978 
	C350.387695,417.715424 350.387695,422.749359 350.387695,428.075989 
	C352.639832,428.075989 354.459564,428.075989 356.279297,428.075989 
	C381.603455,428.075958 406.927582,428.079498 432.251740,428.073975 
	C441.660675,428.071930 443.764343,426.008545 443.767944,416.693756 
	C443.780060,385.371765 443.772522,354.049805 443.773132,322.727814 
	C443.773407,309.732513 443.596741,296.732727 443.924622,283.745697 
	C443.991547,281.094788 445.376648,276.795502 447.156189,276.187103 
	C452.344147,274.413452 452.223511,270.953918 452.028046,266.885406 
	C451.900299,264.225830 452.003571,261.555176 452.000763,257.982330 
M78.790863,285.500000 
	C78.790863,252.743912 78.790863,219.987839 78.790863,187.223419 
	C73.038002,187.223419 68.130898,187.223419 63.042072,187.223419 
	C62.913990,188.889938 62.726532,190.192352 62.726295,191.494812 
	C62.712608,267.156891 62.705914,342.818970 62.728451,418.481049 
	C62.730610,425.727112 65.078445,428.045654 72.310532,428.063538 
	C88.309464,428.103149 104.311035,428.240784 120.306419,427.999390 
	C127.084488,427.897156 132.493729,429.333649 134.754745,436.989502 
	C143.243805,431.328308 151.311737,425.947937 160.117996,420.075226 
	C151.225281,414.171387 143.254150,408.879364 134.710709,403.207397 
	C132.268417,411.415955 126.362144,412.311646 119.533348,412.095673 
	C110.542885,411.811371 101.536644,412.033173 92.537193,412.023712 
	C81.753288,412.012360 78.797295,409.114471 78.794731,398.493225 
	C78.785744,361.162140 78.790817,323.831085 78.790863,285.500000 
M108.937447,135.507675 
	C111.263008,134.611237 113.642159,133.832062 115.904770,132.797882 
	C125.301834,128.502762 127.011032,124.758820 124.418610,114.469376 
	C121.014191,115.758392 117.673904,117.269112 114.188271,118.277412 
	C110.285851,119.406288 107.209610,117.765091 105.627434,114.127029 
	C103.930603,110.225349 105.154404,106.887932 108.810204,104.726463 
	C110.651588,103.637749 112.771996,103.026909 114.748833,102.160301 
	C125.201736,97.577881 126.703194,94.710716 124.634758,83.622017 
	C88.462341,97.236900 52.327797,97.218536 16.192621,83.420563 
	C15.369170,96.725883 16.451441,98.407578 28.952940,103.227875 
	C29.726826,103.526260 30.508213,103.806755 31.293612,104.073479 
	C44.549225,108.575241 58.281910,109.670074 72.150719,109.776672 
	C73.649452,109.788193 75.150513,109.661430 76.647507,109.704071 
	C81.415207,109.839836 84.630417,112.567284 84.896439,116.639526 
	C85.170197,120.830414 81.948463,124.653824 77.055534,124.508972 
	C66.092422,124.184425 55.035561,123.979996 44.228783,122.334755 
	C34.689751,120.882515 25.437971,117.543442 16.152380,115.062347 
	C15.402968,127.924644 16.396666,129.468964 29.009159,134.300369 
	C30.712931,134.953018 32.436489,135.584656 34.196594,136.054947 
	C58.882313,142.650955 83.551819,142.465057 108.937447,135.507675 
M38.144344,50.720913 
	C32.725319,52.770203 27.056887,54.337204 21.945137,56.980679 
	C14.079868,61.048096 14.231791,64.569466 22.083553,68.928101 
	C25.113670,70.610168 28.356705,72.034454 31.660114,73.077988 
	C52.911396,79.791222 74.631966,80.421074 96.299484,76.254456 
	C105.090164,74.564034 113.619751,70.794594 121.811813,66.988884 
	C126.554604,64.785576 126.429611,61.492954 121.943512,58.724174 
	C117.474106,55.965706 112.605095,53.509026 107.582924,52.051228 
	C84.887894,45.463467 61.940578,45.569668 38.144344,50.720913 
M107.500839,167.015289 
	C109.996651,166.103424 112.541939,165.306747 114.979668,164.259659 
	C125.353485,159.803696 126.918419,156.668335 124.477821,145.290192 
	C107.378090,153.382324 89.112480,155.752884 70.536469,155.760712 
	C51.850998,155.768585 33.498543,153.264877 16.211529,145.062485 
	C15.405498,159.073257 16.391846,160.597733 28.969805,165.343536 
	C29.746014,165.636398 30.527538,165.920914 31.321232,166.160858 
	C56.354145,173.728989 81.491531,173.731216 107.500839,167.015289 
M438.214172,124.726936 
	C426.945221,123.494621 415.676270,122.262314 404.180908,121.005241 
	C404.180908,122.482796 404.484375,124.842232 404.120300,127.093719 
	C403.255035,132.444397 405.913239,135.357376 410.604950,136.559738 
	C416.690704,138.119339 422.829956,139.811081 429.047913,140.439590 
	C440.407471,141.587799 451.682190,140.568954 462.232971,135.774170 
	C464.171570,134.893188 466.345520,132.672409 466.765259,130.716812 
	C467.503510,127.277466 466.971588,123.565468 466.971588,120.528023 
	C457.396759,121.966530 448.248260,123.340988 438.214172,124.726936 
M419.333191,154.412506 
	C414.402191,153.261353 409.471191,152.110214 404.178406,150.874603 
	C404.178406,153.611160 404.478302,155.975037 404.117493,158.233353 
	C403.305908,163.312820 405.663940,166.241821 410.219147,167.447510 
	C416.128418,169.011597 422.078217,170.741974 428.120422,171.416397 
	C439.809631,172.721085 451.400513,171.729858 462.272766,166.811340 
	C464.203033,165.938095 466.347687,163.690979 466.765747,161.731094 
	C467.498230,158.297287 466.970184,154.594589 466.970184,150.462646 
	C451.304047,155.902710 435.877594,156.953613 419.333191,154.412506 
M446.142670,94.228699 
	C431.798950,93.426056 417.494354,92.834099 404.458069,101.335411 
	C415.643280,112.930405 459.208527,111.746994 466.471100,101.221832 
	C460.740723,96.758080 453.877411,95.576294 446.142670,94.228699 
z"/>
<path fill="#01BFF9" opacity="1.000000" stroke="none" 
	d="
M337.002808,295.858795 
	C302.356689,295.918304 267.710571,295.977905 233.064468,296.036926 
	C231.398590,296.039764 229.732681,296.033264 228.066818,296.038086 
	C220.817963,296.059143 219.488663,296.947784 216.799088,303.748108 
	C210.643173,303.748108 204.380096,303.748108 197.710052,303.748108 
	C196.563782,297.014099 191.792786,295.588074 185.634857,295.983368 
	C181.321564,296.260223 176.972122,296.143677 172.645264,296.003845 
	C163.498383,295.708252 156.024323,288.577850 155.958984,279.439545 
	C155.777954,254.119736 155.764664,228.796753 155.962921,203.477203 
	C156.039093,193.748016 163.792450,186.946198 174.158340,186.938889 
	C222.635529,186.904724 271.112762,186.921814 319.589996,186.923416 
	C325.087311,186.923599 330.584625,186.941650 336.722748,187.315399 
	C342.191833,193.052429 343.947296,199.557800 343.970337,206.557556 
	C344.044464,229.057037 343.882812,251.557800 344.057190,274.056183 
	C344.120422,282.215210 342.233948,289.521637 337.002808,295.858795 
M173.873611,277.554291 
	C176.134781,278.381226 178.377014,279.855042 180.660431,279.921906 
	C189.975113,280.194550 199.302597,280.074493 208.624954,280.023651 
	C214.421875,279.992035 217.900864,277.130157 217.917007,272.556732 
	C217.933243,267.960602 214.443359,265.078400 208.680023,265.044098 
	C201.567841,265.001740 194.455200,265.033966 187.167099,265.033966 
	C187.167099,259.500061 187.167099,254.441238 187.167099,249.183578 
	C193.141403,248.361206 201.744370,251.284439 201.991394,241.744934 
	C202.262344,231.282074 192.776520,235.002579 187.290482,233.697845 
	C187.290482,228.238297 187.290482,223.177612 187.290482,217.963974 
	C194.818512,217.963974 201.968597,218.031525 209.116699,217.941864 
	C214.495483,217.874390 217.883743,214.888260 217.916321,210.444611 
	C217.948883,206.003860 214.536163,203.009293 209.182938,202.977173 
	C199.860641,202.921265 190.537643,202.933884 181.215149,202.970383 
	C174.430969,202.996948 171.927536,205.490829 171.916702,212.309875 
	C171.885742,231.787491 171.863892,251.265396 171.968292,270.742493 
	C171.979355,272.807922 172.849228,274.868713 173.873611,277.554291 
M264.542725,264.423157 
	C264.542725,249.032852 264.542725,233.642563 264.542725,217.975159 
	C267.452515,217.975159 269.600403,218.051163 271.741180,217.959885 
	C276.742554,217.746628 279.967560,214.783249 280.005920,210.468018 
	C280.044403,206.139053 276.797028,203.019409 271.847992,202.974228 
	C262.026093,202.884583 252.202423,202.895508 242.380234,202.968506 
	C237.313690,203.006165 234.095566,205.905319 233.999557,210.233643 
	C233.899216,214.757172 237.199722,217.785583 242.516159,217.964554 
	C244.758759,218.040054 247.006027,217.977142 249.457184,217.977142 
	C249.457184,232.393219 249.451614,246.039658 249.460449,259.686096 
	C249.463242,264.014160 249.311447,268.354279 249.581573,272.666901 
	C249.861038,277.128448 252.886215,279.944061 256.890106,280.002838 
	C260.907440,280.061859 263.948944,277.296539 264.399536,272.876556 
	C264.651733,270.402832 264.507965,267.888763 264.542725,264.423157 
M339.494446,278.162231 
	C340.153687,275.292114 341.774994,272.225128 341.237854,269.599792 
	C340.503571,266.010864 336.976685,264.963562 333.313324,265.008423 
	C326.042511,265.097504 318.769806,265.034760 311.055023,265.034760 
	C311.055023,262.938049 311.055054,261.318573 311.054993,259.699097 
	C311.054657,243.896820 311.073395,228.094498 311.044037,212.292267 
	C311.032990,206.364197 308.377655,203.059601 303.714996,202.979767 
	C299.001099,202.899063 296.080414,206.239243 296.067749,212.025055 
	C296.024689,231.653061 296.019348,251.281281 296.069855,270.909241 
	C296.086304,277.298645 298.790802,279.971863 305.205017,280.019165 
	C314.519562,280.087860 323.836029,280.110229 333.149109,279.975586 
	C335.063110,279.947937 336.965881,279.142334 339.494446,278.162231 
z"/>
<path fill="#7FD160" opacity="1.000000" stroke="none" 
	d="
M243.833237,488.103760 
	C237.106750,479.078369 225.047775,475.137543 214.290146,479.199677 
	C209.559341,480.986053 206.134949,480.910828 203.262421,476.584259 
	C203.081787,476.312225 202.830521,476.061615 202.559647,475.878754 
	C196.594910,471.852936 195.842468,467.081848 198.646545,460.323822 
	C202.470108,451.108826 196.516525,436.749573 187.289307,432.945770 
	C180.505798,430.149292 178.518311,426.271118 178.766235,419.145538 
	C178.966995,413.375427 180.508087,410.376251 185.843613,407.985413 
	C196.962601,403.003052 202.477722,389.795654 198.216675,378.529419 
	C196.112686,372.966522 196.207565,368.856445 201.394928,365.390198 
	C202.888290,364.392365 204.134018,362.941040 205.278976,361.524445 
	C206.962463,359.441589 208.798553,358.634827 211.286545,360.045258 
	C220.374725,365.197235 229.230621,363.092255 237.165253,357.943542 
	C240.898331,355.521179 243.596222,351.040009 245.881912,346.993958 
	C247.784943,343.625275 249.543396,342.186035 253.687576,341.858246 
	C262.050446,341.196747 267.131561,343.261292 270.688995,351.770233 
	C274.295441,360.396332 283.828796,361.407379 292.601990,363.529816 
	C293.807831,365.220398 294.491272,366.547852 295.251312,367.829865 
	C301.522278,378.407593 305.980927,389.700317 306.908356,401.995941 
	C308.886658,428.223389 300.791870,450.883301 281.422943,468.986664 
	C270.803284,478.912384 258.581757,486.096527 243.833237,488.103760 
M226.181870,421.348389 
	C226.395828,422.827393 226.531738,424.322693 226.836044,425.782867 
	C229.372742,437.955261 236.671722,446.091766 248.470978,449.569397 
	C260.557373,453.131683 271.356598,449.931824 279.760468,440.621124 
	C288.163483,431.311310 290.081329,420.325104 285.490479,408.572357 
	C280.193634,395.012238 266.129028,387.357452 251.682739,389.839203 
	C236.823288,392.391876 226.907425,404.289673 226.181870,421.348389 
z"/>
<path fill="#FA682F" opacity="1.000000" stroke="none" 
	d="
M473.683289,42.372658 
	C481.034790,47.298615 488.166412,51.911354 495.098785,56.806271 
	C496.461792,57.768646 497.872162,59.815529 497.882050,61.371025 
	C498.046448,87.193474 497.992126,113.017319 497.972015,138.840836 
	C497.971649,139.315613 497.792297,139.790237 497.635651,140.566345 
	C492.584229,140.566345 487.532593,140.566345 481.959015,140.566345 
	C481.959015,128.936737 481.545349,117.469307 482.080170,106.046295 
	C482.574127,95.496437 477.771088,88.727646 468.569611,85.031525 
	C446.586273,76.201088 424.400543,76.233818 402.442932,85.116791 
	C393.215515,88.849754 388.621277,95.801468 389.087158,106.261894 
	C389.589935,117.551430 389.200928,128.880676 389.200928,140.534760 
	C383.810272,140.534760 378.759460,140.534760 373.384460,140.534760 
	C373.295471,138.923584 373.146179,137.471039 373.145325,136.018387 
	C373.130920,111.694214 373.198975,87.369667 373.058197,63.046307 
	C373.039551,59.826817 374.016418,57.963737 376.714722,56.189739 
	C396.325012,43.297058 415.819244,30.227880 435.612946,17.039440 
	C448.213776,25.417198 460.803741,33.787720 473.683289,42.372658 
M413.814056,56.230919 
	C414.620697,60.850285 417.804443,62.593979 422.041809,62.645145 
	C431.039612,62.753788 440.041382,62.785969 449.038055,62.637890 
	C454.365875,62.550205 457.729919,59.299534 457.598053,54.876541 
	C457.470215,50.589870 454.287811,47.746292 449.093292,47.681858 
	C440.095581,47.570259 431.094269,47.557709 422.096924,47.681385 
	C416.454041,47.758949 414.615051,49.614590 413.814056,56.230919 
z"/>
<path fill="#0054A1" opacity="1.000000" stroke="none" 
	d="
M452.002075,258.435913 
	C452.003571,261.555176 451.900299,264.225830 452.028046,266.885406 
	C452.223511,270.953918 452.344147,274.413452 447.156189,276.187103 
	C445.376648,276.795502 443.991547,281.094788 443.924622,283.745697 
	C443.596741,296.732727 443.773407,309.732513 443.773132,322.727814 
	C443.772522,354.049805 443.780060,385.371765 443.767944,416.693756 
	C443.764343,426.008545 441.660675,428.071930 432.251740,428.073975 
	C406.927582,428.079498 381.603455,428.075958 356.279297,428.075989 
	C354.459564,428.075989 352.639832,428.075989 350.387695,428.075989 
	C350.387695,422.749359 350.387695,417.715424 350.387695,412.026978 
	C352.240662,412.026978 354.015503,412.027008 355.790375,412.026947 
	C375.449921,412.026428 395.109467,412.040222 414.768982,412.019012 
	C423.990326,412.009064 427.643768,408.633240 427.655701,399.429779 
	C427.729248,342.617188 427.689117,285.804382 427.705383,228.991669 
	C427.707123,222.919113 425.693726,218.225479 418.650116,216.290009 
	C424.324493,207.766083 429.725983,199.652100 435.598816,190.830093 
	C441.302429,199.392944 446.682587,207.470245 452.509888,216.218796 
	C444.108154,218.515839 443.385101,224.716385 443.727661,231.626053 
	C443.966614,236.445953 443.808685,241.287170 443.773834,246.118469 
	C443.745483,250.048737 445.349487,252.660904 449.138550,254.219116 
	C450.395844,254.736176 451.063538,256.686981 452.002075,258.435913 
z"/>
<path fill="#0054A0" opacity="1.000000" stroke="none" 
	d="
M78.790710,286.000000 
	C78.790817,323.831085 78.785744,361.162140 78.794731,398.493225 
	C78.797295,409.114471 81.753288,412.012360 92.537193,412.023712 
	C101.536644,412.033173 110.542885,411.811371 119.533348,412.095673 
	C126.362144,412.311646 132.268417,411.415955 134.710709,403.207397 
	C143.254150,408.879364 151.225281,414.171387 160.117996,420.075226 
	C151.311737,425.947937 143.243805,431.328308 134.754745,436.989502 
	C132.493729,429.333649 127.084488,427.897156 120.306419,427.999390 
	C104.311035,428.240784 88.309464,428.103149 72.310532,428.063538 
	C65.078445,428.045654 62.730610,425.727112 62.728451,418.481049 
	C62.705914,342.818970 62.712608,267.156891 62.726295,191.494812 
	C62.726532,190.192352 62.913990,188.889938 63.042072,187.223419 
	C68.130898,187.223419 73.038002,187.223419 78.790863,187.223419 
	C78.790863,219.987839 78.790863,252.743912 78.790710,286.000000 
z"/>
<path fill="#80ABDF" opacity="1.000000" stroke="none" 
	d="
M108.566826,135.656555 
	C83.551819,142.465057 58.882313,142.650955 34.196594,136.054947 
	C32.436489,135.584656 30.712931,134.953018 29.009159,134.300369 
	C16.396666,129.468964 15.402968,127.924644 16.152380,115.062347 
	C25.437971,117.543442 34.689751,120.882515 44.228783,122.334755 
	C55.035561,123.979996 66.092422,124.184425 77.055534,124.508972 
	C81.948463,124.653824 85.170197,120.830414 84.896439,116.639526 
	C84.630417,112.567284 81.415207,109.839836 76.647507,109.704071 
	C75.150513,109.661430 73.649452,109.788193 72.150719,109.776672 
	C58.281910,109.670074 44.549225,108.575241 31.293612,104.073479 
	C30.508213,103.806755 29.726826,103.526260 28.952940,103.227875 
	C16.451441,98.407578 15.369170,96.725883 16.192621,83.421021 
	C52.327797,97.218536 88.462341,97.236900 124.634758,83.622017 
	C126.703194,94.710716 125.201736,97.577881 114.748833,102.160301 
	C112.771996,103.026909 110.651588,103.637749 108.810204,104.726463 
	C105.154404,106.887932 103.930603,110.225349 105.627434,114.127029 
	C107.209610,117.765091 110.285851,119.406288 114.188271,118.277412 
	C117.673904,117.269112 121.014191,115.758392 124.418533,114.469162 
	C127.011032,124.758820 125.301834,128.502762 115.904770,132.797882 
	C113.642159,133.832062 111.263008,134.611237 108.566826,135.656555 
z"/>
<path fill="#67C843" opacity="1.000000" stroke="none" 
	d="
M243.892670,488.459167 
	C258.581757,486.096527 270.803284,478.912384 281.422943,468.986664 
	C300.791870,450.883301 308.886658,428.223389 306.908356,401.995941 
	C305.980927,389.700317 301.522278,378.407593 295.251312,367.829865 
	C294.491272,366.547852 293.807831,365.220398 293.014526,363.578766 
	C293.419739,363.107330 293.954865,363.065613 294.370697,362.821045 
	C303.031555,357.727814 309.541443,360.217194 315.358032,367.915588 
	C317.380951,370.593018 318.041718,372.506897 316.711700,375.359131 
	C313.514587,382.215485 313.656677,388.685944 316.794556,395.906647 
	C319.633148,402.438660 323.672913,406.697083 330.042999,409.084198 
	C333.735016,410.467682 334.834717,412.739166 335.176056,416.831909 
	C335.875580,425.219696 333.895813,430.561707 325.204620,433.755371 
	C317.617798,436.543213 311.709412,451.565277 315.024200,459.049500 
	C318.513031,466.926575 316.737000,471.995697 310.406158,477.240692 
	C307.027100,480.040161 304.691437,480.926788 300.483734,479.429138 
	C286.479187,474.444397 274.591156,479.437103 268.155334,492.949585 
	C266.331696,496.778442 264.293701,498.875122 259.964844,498.016663 
	C259.484528,497.921417 258.949219,497.913269 258.472748,498.017303 
	C250.589050,499.738525 246.005341,496.279175 243.892670,488.459167 
z"/>
<path fill="#B0C7E9" opacity="1.000000" stroke="none" 
	d="
M38.536591,50.588364 
	C61.940578,45.569668 84.887894,45.463467 107.582924,52.051228 
	C112.605095,53.509026 117.474106,55.965706 121.943512,58.724174 
	C126.429611,61.492954 126.554604,64.785576 121.811813,66.988884 
	C113.619751,70.794594 105.090164,74.564034 96.299484,76.254456 
	C74.631966,80.421074 52.911396,79.791222 31.660114,73.077988 
	C28.356705,72.034454 25.113670,70.610168 22.083553,68.928101 
	C14.231791,64.569466 14.079868,61.048096 21.945137,56.980679 
	C27.056887,54.337204 32.725319,52.770203 38.536591,50.588364 
z"/>
<path fill="#80ABDF" opacity="1.000000" stroke="none" 
	d="
M107.109177,167.102051 
	C81.491531,173.731216 56.354145,173.728989 31.321232,166.160858 
	C30.527538,165.920914 29.746014,165.636398 28.969805,165.343536 
	C16.391846,160.597733 15.405498,159.073257 16.211529,145.062485 
	C33.498543,153.264877 51.850998,155.768585 70.536469,155.760712 
	C89.112480,155.752884 107.378090,153.382324 124.477821,145.290192 
	C126.918419,156.668335 125.353485,159.803696 114.979668,164.259659 
	C112.541939,165.306747 109.996651,166.103424 107.109177,167.102051 
z"/>
<path fill="#08A9F0" opacity="1.000000" stroke="none" 
	d="
M337.436615,295.934753 
	C342.233948,289.521637 344.120422,282.215210 344.057190,274.056183 
	C343.882812,251.557800 344.044464,229.057037 343.970337,206.557556 
	C343.947296,199.557800 342.191833,193.052429 337.185699,187.396637 
	C350.902191,186.285690 358.124939,193.092514 358.135620,207.087494 
	C358.153137,230.045532 358.154266,253.003601 358.135101,275.961639 
	C358.123779,289.545044 351.491455,296.081787 337.436615,295.934753 
z"/>
<path fill="#7FAADE" opacity="1.000000" stroke="none" 
	d="
M438.656982,124.721191 
	C448.248260,123.340988 457.396759,121.966530 466.971588,120.528023 
	C466.971588,123.565468 467.503510,127.277466 466.765259,130.716812 
	C466.345520,132.672409 464.171570,134.893188 462.232971,135.774170 
	C451.682190,140.568954 440.407471,141.587799 429.047913,140.439590 
	C422.829956,139.811081 416.690704,138.119339 410.604950,136.559738 
	C405.913239,135.357376 403.255035,132.444397 404.120300,127.093719 
	C404.484375,124.842232 404.180908,122.482796 404.180908,121.005241 
	C415.676270,122.262314 426.945221,123.494621 438.656982,124.721191 
z"/>
<path fill="#7FAADE" opacity="1.000000" stroke="none" 
	d="
M419.760620,154.517303 
	C435.877594,156.953613 451.304047,155.902710 466.970184,150.462646 
	C466.970184,154.594589 467.498230,158.297287 466.765747,161.731094 
	C466.347687,163.690979 464.203033,165.938095 462.272766,166.811340 
	C451.400513,171.729858 439.809631,172.721085 428.120422,171.416397 
	C422.078217,170.741974 416.128418,169.011597 410.219147,167.447510 
	C405.663940,166.241821 403.305908,163.312820 404.117493,158.233353 
	C404.478302,155.975037 404.178406,153.611160 404.178406,150.874603 
	C409.471191,152.110214 414.402191,153.261353 419.760620,154.517303 
z"/>
<path fill="#ADC5E6" opacity="1.000000" stroke="none" 
	d="
M446.584900,94.293900 
	C453.877411,95.576294 460.740723,96.758080 466.471100,101.221832 
	C459.208527,111.746994 415.643280,112.930405 404.458069,101.335411 
	C417.494354,92.834099 431.798950,93.426056 446.584900,94.293900 
z"/>
<path fill="#000202" opacity="1.000000" stroke="none" 
	d="
M173.597137,277.242981 
	C172.849228,274.868713 171.979355,272.807922 171.968292,270.742493 
	C171.863892,251.265396 171.885742,231.787491 171.916702,212.309875 
	C171.927536,205.490829 174.430969,202.996948 181.215149,202.970383 
	C190.537643,202.933884 199.860641,202.921265 209.182938,202.977173 
	C214.536163,203.009293 217.948883,206.003860 217.916321,210.444611 
	C217.883743,214.888260 214.495483,217.874390 209.116699,217.941864 
	C201.968597,218.031525 194.818512,217.963974 187.290482,217.963974 
	C187.290482,223.177612 187.290482,228.238297 187.290482,233.697845 
	C192.776520,235.002579 202.262344,231.282074 201.991394,241.744934 
	C201.744370,251.284439 193.141403,248.361206 187.167099,249.183578 
	C187.167099,254.441238 187.167099,259.500061 187.167099,265.033966 
	C194.455200,265.033966 201.567841,265.001740 208.680023,265.044098 
	C214.443359,265.078400 217.933243,267.960602 217.917007,272.556732 
	C217.900864,277.130157 214.421875,279.992035 208.624954,280.023651 
	C199.302597,280.074493 189.975113,280.194550 180.660431,279.921906 
	C178.377014,279.855042 176.134781,278.381226 173.597137,277.242981 
z"/>
<path fill="#00070A" opacity="1.000000" stroke="none" 
	d="
M264.542664,264.908020 
	C264.507965,267.888763 264.651733,270.402832 264.399536,272.876556 
	C263.948944,277.296539 260.907440,280.061859 256.890106,280.002838 
	C252.886215,279.944061 249.861038,277.128448 249.581573,272.666901 
	C249.311447,268.354279 249.463242,264.014160 249.460449,259.686096 
	C249.451614,246.039658 249.457184,232.393219 249.457184,217.977142 
	C247.006027,217.977142 244.758759,218.040054 242.516159,217.964554 
	C237.199722,217.785583 233.899216,214.757172 233.999557,210.233643 
	C234.095566,205.905319 237.313690,203.006165 242.380234,202.968506 
	C252.202423,202.895508 262.026093,202.884583 271.847992,202.974228 
	C276.797028,203.019409 280.044403,206.139053 280.005920,210.468018 
	C279.967560,214.783249 276.742554,217.746628 271.741180,217.959885 
	C269.600403,218.051163 267.452515,217.975159 264.542725,217.975159 
	C264.542725,233.642563 264.542725,249.032852 264.542664,264.908020 
z"/>
<path fill="#000202" opacity="1.000000" stroke="none" 
	d="
M339.184143,278.428772 
	C336.965881,279.142334 335.063110,279.947937 333.149109,279.975586 
	C323.836029,280.110229 314.519562,280.087860 305.205017,280.019165 
	C298.790802,279.971863 296.086304,277.298645 296.069855,270.909241 
	C296.019348,251.281281 296.024689,231.653061 296.067749,212.025055 
	C296.080414,206.239243 299.001099,202.899063 303.714996,202.979767 
	C308.377655,203.059601 311.032990,206.364197 311.044037,212.292267 
	C311.073395,228.094498 311.054657,243.896820 311.054993,259.699097 
	C311.055054,261.318573 311.055023,262.938049 311.055023,265.034760 
	C318.769806,265.034760 326.042511,265.097504 333.313324,265.008423 
	C336.976685,264.963562 340.503571,266.010864 341.237854,269.599792 
	C341.774994,272.225128 340.153687,275.292114 339.184143,278.428772 
z"/>
<path fill="#010201" opacity="1.000000" stroke="none" 
	d="
M226.166351,420.911316 
	C226.907425,404.289673 236.823288,392.391876 251.682739,389.839203 
	C266.129028,387.357452 280.193634,395.012238 285.490479,408.572357 
	C290.081329,420.325104 288.163483,431.311310 279.760468,440.621124 
	C271.356598,449.931824 260.557373,453.131683 248.470978,449.569397 
	C236.671722,446.091766 229.372742,437.955261 226.836044,425.782867 
	C226.531738,424.322693 226.395828,422.827393 226.166351,420.911316 
z"/>
<path fill="#070301" opacity="1.000000" stroke="none" 
	d="
M413.776184,55.821007 
	C414.615051,49.614590 416.454041,47.758949 422.096924,47.681385 
	C431.094269,47.557709 440.095581,47.570259 449.093292,47.681858 
	C454.287811,47.746292 457.470215,50.589870 457.598053,54.876541 
	C457.729919,59.299534 454.365875,62.550205 449.038055,62.637890 
	C440.041382,62.785969 431.039612,62.753788 422.041809,62.645145 
	C417.804443,62.593979 414.620697,60.850285 413.776184,55.821007 
z"/>
</svg>