<svg version="1.1" id="Layer_1" xmlns="http://www.w3.org/2000/svg" xmlns:xlink="http://www.w3.org/1999/xlink" x="0px" y="0px"
	 width="100%" viewBox="0 0 64 64" enable-background="new 0 0 64 64" xml:space="preserve">
<path fill="#000000" opacity="1.000000" stroke="none" 
	d="
M41.000072,65.000000 
	C27.333387,65.000000 14.166720,65.000000 1.000040,65.000000 
	C1.000027,43.666683 1.000027,22.333368 1.000013,1.000040 
	C22.333315,1.000027 43.666630,1.000027 64.999954,1.000013 
	C64.999969,22.333315 64.999969,43.666630 64.999985,64.999969 
	C57.166698,65.000000 49.333393,65.000000 41.000072,65.000000 
M5.039360,22.035099 
	C5.026465,22.700296 5.043747,23.367680 4.995746,24.030334 
	C4.698970,28.127275 5.269426,31.264170 10.649323,31.063866 
	C16.431854,30.848566 16.700123,30.515322 17.117815,24.263226 
	C17.290773,21.674311 18.771545,19.172771 19.969673,15.736252 
	C24.193975,19.714460 27.631348,21.906343 27.184910,27.260078 
	C26.874329,30.984577 30.398354,31.029312 33.364552,31.042982 
	C36.323730,31.056620 39.206913,30.488842 38.869755,27.044479 
	C38.347725,21.711559 41.841965,19.536154 46.130558,15.971861 
	C47.260239,19.119986 48.723953,21.506002 48.884846,23.976858 
	C49.303688,30.409031 50.793922,32.132938 57.041691,30.811691 
	C58.608665,30.480318 60.437069,28.029871 60.827160,26.262386 
	C61.437004,23.499210 61.770233,19.546883 57.692455,19.159693 
	C51.897579,18.609459 50.357109,15.685411 50.969395,10.491719 
	C51.447224,6.438498 49.384232,4.912356 45.395321,4.930757 
	C41.584358,4.948337 38.795425,5.527940 38.957096,10.240985 
	C39.023212,12.168485 39.322361,14.937966 38.251373,15.866760 
	C36.374573,17.494387 33.339718,19.064819 31.128380,18.685669 
	C28.691978,18.267931 26.216003,16.313559 26.861692,12.339853 
	C27.782286,6.674325 26.346294,5.130025 21.764297,5.000546 
	C15.749118,4.830569 14.962422,5.525900 15.036255,11.866721 
	C15.086273,16.162245 13.566153,18.696943 8.953540,19.100956 
	C7.680232,19.212484 6.508994,20.489349 5.039360,22.035099 
M26.537621,35.000084 
	C24.046986,35.000362 21.544327,35.157623 19.068237,34.967987 
	C14.034640,34.582470 15.015200,38.143291 15.025171,40.988861 
	C15.035077,43.815865 13.991692,47.185978 19.044466,47.063480 
	C28.337374,46.838184 37.643745,46.834328 46.936378,47.065235 
	C51.974663,47.190430 50.982475,43.851688 50.974716,41.009212 
	C50.966999,38.180725 52.006500,34.752121 46.952972,34.941788 
	C40.486439,35.184494 34.003883,35.000309 26.537621,35.000084 
M46.221947,49.000240 
	C37.250710,49.000401 28.273140,49.201778 19.310778,48.919796 
	C14.491668,48.768177 14.900740,51.682102 14.999492,54.751415 
	C15.096289,57.759983 13.974052,61.244583 19.311169,61.078003 
	C28.439655,60.793083 37.583599,60.973507 46.720772,61.017105 
	C49.087460,61.028393 51.571045,60.788704 50.881779,57.739235 
	C50.192104,54.687939 54.056992,49.434109 46.221947,49.000240 
z"/>
<path fill="#FCC419" opacity="1.000000" stroke="none" 
	d="
M5.165141,21.633310 
	C6.508994,20.489349 7.680232,19.212484 8.953540,19.100956 
	C13.566153,18.696943 15.086273,16.162245 15.036255,11.866721 
	C14.962422,5.525900 15.749118,4.830569 21.764297,5.000546 
	C26.346294,5.130025 27.782286,6.674325 26.861692,12.339853 
	C26.216003,16.313559 28.691978,18.267931 31.128380,18.685669 
	C33.339718,19.064819 36.374573,17.494387 38.251373,15.866760 
	C39.322361,14.937966 39.023212,12.168485 38.957096,10.240985 
	C38.795425,5.527940 41.584358,4.948337 45.395321,4.930757 
	C49.384232,4.912356 51.447224,6.438498 50.969395,10.491719 
	C50.357109,15.685411 51.897579,18.609459 57.692455,19.159693 
	C61.770233,19.546883 61.437004,23.499210 60.827160,26.262386 
	C60.437069,28.029871 58.608665,30.480318 57.041691,30.811691 
	C50.793922,32.132938 49.303688,30.409031 48.884846,23.976858 
	C48.723953,21.506002 47.260239,19.119986 46.130558,15.971861 
	C41.841965,19.536154 38.347725,21.711559 38.869755,27.044479 
	C39.206913,30.488842 36.323730,31.056620 33.364552,31.042982 
	C30.398354,31.029312 26.874329,30.984577 27.184910,27.260078 
	C27.631348,21.906343 24.193975,19.714460 19.969673,15.736252 
	C18.771545,19.172771 17.290773,21.674311 17.117815,24.263226 
	C16.700123,30.515322 16.431854,30.848566 10.649323,31.063866 
	C5.269426,31.264170 4.698970,28.127275 4.995746,24.030334 
	C5.043747,23.367680 5.026465,22.700296 5.165141,21.633310 
z"/>
<path fill="#FCC419" opacity="1.000000" stroke="none" 
	d="
M27.032927,35.000084 
	C34.003883,35.000309 40.486439,35.184494 46.952972,34.941788 
	C52.006500,34.752121 50.966999,38.180725 50.974716,41.009212 
	C50.982475,43.851688 51.974663,47.190430 46.936378,47.065235 
	C37.643745,46.834328 28.337374,46.838184 19.044466,47.063480 
	C13.991692,47.185978 15.035077,43.815865 15.025171,40.988861 
	C15.015200,38.143291 14.034640,34.582470 19.068237,34.967987 
	C21.544327,35.157623 24.046986,35.000362 27.032927,35.000084 
z"/>
<path fill="#FCC419" opacity="1.000000" stroke="none" 
	d="
M46.692528,49.000549 
	C54.056992,49.434109 50.192104,54.687939 50.881779,57.739235 
	C51.571045,60.788704 49.087460,61.028393 46.720772,61.017105 
	C37.583599,60.973507 28.439655,60.793083 19.311169,61.078003 
	C13.974052,61.244583 15.096289,57.759983 14.999492,54.751415 
	C14.900740,51.682102 14.491668,48.768177 19.310778,48.919796 
	C28.273140,49.201778 37.250710,49.000401 46.692528,49.000549 
z"/>
</svg>