<svg version="1.1" id="Layer_1" xmlns="http://www.w3.org/2000/svg" xmlns:xlink="http://www.w3.org/1999/xlink" x="0px" y="0px"
	 width="100%" viewBox="0 0 512 512" enable-background="new 0 0 512 512" xml:space="preserve">
<path fill="#000001" opacity="1.000000" stroke="none" 
	d="
M513.000000,186.000000 
	C513.000000,295.306763 513.000000,404.113525 513.000000,512.960144 
	C342.401550,512.960144 171.803116,512.960144 1.102331,512.960144 
	C1.102331,342.443268 1.102331,171.886444 1.102331,1.164816 
	C171.666534,1.164816 342.333252,1.164816 513.000000,1.164816 
	C513.000000,62.530186 513.000000,124.015091 513.000000,186.000000 
M205.100296,373.952545 
	C203.771851,374.052277 202.439056,374.112457 201.115570,374.257477 
	C164.575668,378.262177 128.271194,376.969940 92.353165,368.903107 
	C68.332947,363.508453 45.332985,355.494141 25.361101,340.467102 
	C23.065916,338.740173 20.847242,336.911499 18.032934,334.687286 
	C18.032934,344.783661 18.408413,353.946228 17.937302,363.065033 
	C17.356535,374.306335 21.816729,383.053314 29.697416,390.524841 
	C39.660721,399.970825 51.506020,406.343353 64.200134,411.089203 
	C110.193115,428.284119 157.644135,430.787903 206.711395,424.723053 
	C212.048935,423.828918 217.386475,422.934784 222.527313,422.073608 
	C222.527313,404.804810 222.527313,388.169434 222.527313,371.151459 
	C216.707245,372.175110 211.340500,373.119049 205.100296,373.952545 
M206.941803,356.239594 
	C212.150833,355.461914 217.359848,354.684235 222.928040,353.852936 
	C222.928040,348.237671 223.156128,343.101288 222.874908,337.992920 
	C222.447128,330.222290 224.170517,323.182739 229.486832,316.606049 
	C235.204437,310.543854 242.305527,308.061401 250.547958,308.095245 
	C264.024017,308.150543 277.500946,308.000427 291.906189,308.088226 
	C297.155121,308.088226 302.404083,308.088226 307.696136,308.088226 
	C307.696136,291.245728 307.696136,275.012878 307.696136,258.539124 
	C301.862549,262.829498 296.421173,266.831421 290.274780,270.973907 
	C277.948212,276.313782 265.985352,282.825623 253.230011,286.783936 
	C206.287735,301.351318 158.327332,302.829742 109.986519,295.465027 
	C84.522675,291.585632 59.919292,284.693817 37.454929,271.659241 
	C30.813494,267.805634 24.711414,263.022491 18.033688,258.439880 
	C18.033688,270.905975 18.375492,283.048553 17.930870,295.162231 
	C17.540535,305.796875 21.529089,314.227203 28.867310,321.461334 
	C39.027836,331.477692 51.395847,337.909698 64.497398,342.979675 
	C97.113670,355.601440 131.179535,359.765228 165.873810,359.166321 
	C179.288315,358.934753 192.676666,357.188782 206.941803,356.239594 
M290.304626,194.123917 
	C274.372528,203.414368 257.271301,209.760742 239.395233,214.037567 
	C192.685379,225.212921 145.683670,225.841537 98.661201,216.643753 
	C69.681625,210.975250 42.059605,201.590973 19.095974,181.856934 
	C18.946718,181.728668 18.506641,181.938812 18.033941,182.019775 
	C18.033941,193.158539 18.674063,204.360855 17.878969,215.460358 
	C16.777042,230.843277 23.811762,241.546036 35.348206,250.322296 
	C48.253761,260.140106 62.905968,266.354706 78.267410,270.995300 
	C114.622635,281.977905 151.867554,284.310974 189.507721,281.573029 
	C211.463669,279.975983 233.153809,276.593628 254.653000,268.813263 
	C261.099335,266.155701 267.861572,264.065430 273.911774,260.696503 
	C281.419373,256.516113 288.750458,251.784958 295.408325,246.370132 
	C304.188934,239.228851 308.896454,229.913208 308.247864,218.005905 
	C307.669586,207.389618 308.137848,196.716904 308.112183,186.069168 
	C308.108856,184.685638 307.913788,183.302567 307.787201,181.655029 
	C301.897736,185.996490 296.449738,190.012527 290.304626,194.123917 
M254.684280,191.935257 
	C270.554504,186.525696 285.536530,179.511505 297.674774,167.561554 
	C304.727448,160.618286 308.452362,152.440903 308.243744,142.161499 
	C307.835388,122.040161 307.821014,101.898262 308.248047,81.777695 
	C308.470551,71.292793 304.656403,62.964958 297.372406,56.009624 
	C284.469543,43.688942 268.884766,36.160934 251.229462,30.926579 
	C223.351517,21.366791 194.469879,18.280264 165.228699,18.097900 
	C131.230087,17.885866 97.797447,21.792284 65.764404,33.988117 
	C51.523014,39.410191 38.058792,46.253162 27.393087,57.544498 
	C21.079260,64.228676 17.798691,71.966690 17.938860,81.431511 
	C18.244629,102.078423 18.157064,122.734093 17.970808,143.383850 
	C17.899351,151.306198 20.223240,158.268219 25.486128,163.943253 
	C29.641151,168.423660 34.215679,172.689087 39.208981,176.185959 
	C55.256218,187.424057 73.520744,193.574600 92.393509,198.012100 
	C128.096466,206.406815 164.237457,207.706680 200.576019,203.759018 
	C218.762985,201.783264 236.789108,198.674576 254.684280,191.935257 
M477.892303,495.951508 
	C479.390778,495.959564 480.889282,495.974182 482.387756,495.974609 
	C493.958313,495.977783 495.975250,493.948395 495.975403,482.298157 
	C495.976105,435.842896 495.716766,389.385498 496.108032,342.933533 
	C496.256439,325.314819 493.111023,324.376282 476.044769,325.214294 
	C401.389862,325.203033 326.734955,325.189636 252.080048,325.183136 
	C242.480621,325.182281 239.964630,327.711304 239.963943,337.327728 
	C239.960434,385.986877 239.961380,434.645996 239.963135,483.305145 
	C239.963501,493.632294 242.277451,495.964630 252.522949,495.964813 
	C325.678284,495.966187 398.833649,495.966736 471.988983,495.958405 
	C473.651306,495.958221 475.313629,495.851135 477.892303,495.951508 
z"/>
<path fill="#FEDB00" opacity="1.000000" stroke="none" 
	d="
M476.975952,495.793915 
	C475.313629,495.851135 473.651306,495.958221 471.988983,495.958405 
	C398.833649,495.966736 325.678284,495.966187 252.522949,495.964813 
	C242.277451,495.964630 239.963501,493.632294 239.963135,483.305145 
	C239.961380,434.645996 239.960434,385.986877 239.963943,337.327728 
	C239.964630,327.711304 242.480621,325.182281 252.080048,325.183136 
	C326.734955,325.189636 401.389862,325.203033 476.587952,325.663635 
	C477.755707,329.681030 478.906891,333.246796 478.922577,336.817566 
	C479.063385,368.954926 479.020355,401.093170 478.990662,433.231140 
	C478.985291,439.054596 478.794952,444.877869 478.450958,450.421356 
	C476.448792,446.075836 473.195221,444.699097 468.964264,444.787811 
	C463.857849,444.894867 458.747528,444.813141 453.189697,444.813141 
	C453.189697,442.403168 453.189728,440.609558 453.189728,438.815979 
	C453.189545,415.818207 453.208221,392.820435 453.176971,369.822723 
	C453.168182,363.359100 450.105682,359.581177 444.948914,359.428467 
	C439.615265,359.270538 436.142487,363.266846 436.133820,369.849274 
	C436.098022,397.013245 436.093842,424.177307 436.136200,451.341278 
	C436.147522,458.597290 439.305389,461.786926 446.444275,461.862915 
	C453.776062,461.940979 461.110870,461.789062 468.441315,461.915375 
	C472.637665,461.987701 475.890533,460.548889 478.374237,457.347473 
	C478.648834,470.424133 480.790680,483.234924 476.975952,495.793915 
M353.667725,368.143097 
	C347.139191,374.128967 342.925995,381.511566 342.623138,390.341339 
	C342.161469,403.800415 341.560608,417.359802 342.653961,430.743011 
	C344.376526,451.828491 363.338501,465.444824 383.624084,460.831360 
	C388.961090,459.617584 393.888855,456.604370 400.194366,453.908844 
	C401.285767,455.235229 402.755829,457.532288 404.710327,459.290955 
	C408.771454,462.945343 414.345520,462.296326 417.376953,458.105713 
	C420.166809,454.249054 419.698120,449.760742 415.056885,445.800323 
	C410.350281,441.784119 409.198730,437.810669 409.908112,431.361176 
	C411.247375,419.184814 410.751831,406.780273 410.616699,394.474945 
	C410.458984,380.117065 404.232758,369.031830 391.058136,362.826569 
	C377.947174,356.651276 365.519653,358.673248 353.667725,368.143097 
M325.158539,431.537170 
	C324.396912,414.977661 312.770447,403.021088 296.499695,402.064606 
	C287.777588,401.551880 282.591125,396.584625 282.760162,388.905853 
	C282.923096,381.505646 288.246948,376.675690 296.729462,376.484039 
	C303.219849,376.337402 309.719849,376.574188 316.208038,376.383789 
	C321.682312,376.223145 324.965485,373.056885 325.132690,368.276245 
	C325.308380,363.253540 321.994690,359.572723 316.417419,359.425171 
	C308.602081,359.218384 300.729187,358.967499 292.961212,359.649628 
	C276.758606,361.072449 265.322235,373.974854 265.614746,389.738678 
	C265.912506,405.782471 278.003265,418.098999 294.388275,419.049408 
	C302.973480,419.547394 308.273071,424.700043 308.070801,432.352478 
	C307.876373,439.709320 302.392334,444.639343 294.036041,444.785309 
	C287.877289,444.892944 281.714691,444.761963 275.554688,444.824310 
	C269.222015,444.888397 265.537842,448.142181 265.639160,453.442932 
	C265.736237,458.521698 269.389740,461.767151 275.388794,461.857941 
	C281.880920,461.956207 288.377289,461.973602 294.868988,461.861084 
	C311.996338,461.564301 324.320160,449.556091 325.158539,431.537170 
z"/>
<path fill="#02A8F3" opacity="1.000000" stroke="none" 
	d="
M253.929428,191.822174 
	C236.789108,198.674576 218.762985,201.783264 200.576019,203.759018 
	C164.237457,207.706680 128.096466,206.406815 92.393509,198.012100 
	C73.520744,193.574600 55.256218,187.424057 39.208981,176.185959 
	C34.215679,172.689087 29.641151,168.423660 25.486128,163.943253 
	C20.223240,158.268219 17.899351,151.306198 17.970808,143.383850 
	C18.157064,122.734093 18.244629,102.078423 17.938860,81.431511 
	C17.798691,71.966690 21.079260,64.228676 27.393087,57.544498 
	C38.058792,46.253162 51.523014,39.410191 65.764404,33.988117 
	C97.797447,21.792284 131.230087,17.885866 165.228699,18.097900 
	C194.469879,18.280264 223.351517,21.366791 251.679047,31.400961 
	C258.407990,35.906918 264.997681,39.533016 270.903290,44.052906 
	C283.950470,54.038605 292.025726,66.355736 291.243622,83.994492 
	C290.336914,104.443840 290.988190,124.964165 291.048431,145.453430 
	C291.069183,152.511673 289.056305,158.835907 285.231384,164.740555 
	C278.407990,175.273987 268.465546,182.143555 258.014374,188.488876 
	C256.526550,189.392166 255.284973,190.701035 253.929428,191.822174 
M237.659561,45.882427 
	C236.877182,45.601841 236.108261,45.273750 235.310486,45.047478 
	C190.454041,32.324768 145.328125,31.906384 100.093063,42.606449 
	C84.328712,46.335407 69.075584,51.726128 56.387566,62.377453 
	C39.353142,76.677490 39.353123,95.794563 56.285904,110.188095 
	C66.777138,119.106064 79.242729,124.247116 92.268112,127.907921 
	C135.614487,140.090500 179.324814,140.556763 223.149048,130.817474 
	C239.622116,127.156578 255.525848,121.734856 269.006073,111.001854 
	C275.536957,105.801918 280.635468,99.527550 282.073730,90.991867 
	C284.289459,77.842270 278.229950,67.906906 268.024780,61.172001 
	C258.837677,55.108994 248.347031,51.021172 237.659561,45.882427 
z"/>
<path fill="#02A8F3" opacity="1.000000" stroke="none" 
	d="
M253.905548,268.736786 
	C233.153809,276.593628 211.463669,279.975983 189.507721,281.573029 
	C151.867554,284.310974 114.622635,281.977905 78.267410,270.995300 
	C62.905968,266.354706 48.253761,260.140106 35.348206,250.322296 
	C23.811762,241.546036 16.777042,230.843277 17.878969,215.460358 
	C18.674063,204.360855 18.033941,193.158539 18.033941,182.019775 
	C18.506641,181.938812 18.946718,181.728668 19.095974,181.856934 
	C42.059605,201.590973 69.681625,210.975250 98.661201,216.643753 
	C145.683670,225.841537 192.685379,225.212921 239.395233,214.037567 
	C257.271301,209.760742 274.372528,203.414368 290.658203,194.543015 
	C291.015564,204.283585 291.234711,213.612305 290.920685,222.923065 
	C290.788910,226.830811 290.085419,230.915695 288.681854,234.549179 
	C283.419495,248.171799 272.422211,256.450165 260.509735,263.796875 
	C258.179230,265.234131 256.100433,267.079590 253.905548,268.736786 
z"/>
<path fill="#02A8F3" opacity="1.000000" stroke="none" 
	d="
M290.977509,307.936951 
	C277.500946,308.000427 264.024017,308.150543 250.547958,308.095245 
	C242.305527,308.061401 235.204437,310.543854 228.745880,316.760071 
	C226.846024,316.927765 225.687119,316.946014 224.528168,316.954437 
	C212.474030,317.042053 205.989410,323.596161 205.977829,335.769135 
	C205.971375,342.556976 206.041382,349.344879 206.076935,356.132751 
	C192.676666,357.188782 179.288315,358.934753 165.873810,359.166321 
	C131.179535,359.765228 97.113670,355.601440 64.497398,342.979675 
	C51.395847,337.909698 39.027836,331.477692 28.867310,321.461334 
	C21.529089,314.227203 17.540535,305.796875 17.930870,295.162231 
	C18.375492,283.048553 18.033688,270.905975 18.033688,258.439880 
	C24.711414,263.022491 30.813494,267.805634 37.454929,271.659241 
	C59.919292,284.693817 84.522675,291.585632 109.986519,295.465027 
	C158.327332,302.829742 206.287735,301.351318 253.230011,286.783936 
	C265.985352,282.825623 277.948212,276.313782 290.642273,271.383026 
	C290.999054,283.840424 290.988281,295.888672 290.977509,307.936951 
z"/>
<path fill="#02A8F2" opacity="1.000000" stroke="none" 
	d="
M205.897659,424.675598 
	C157.644135,430.787903 110.193115,428.284119 64.200134,411.089203 
	C51.506020,406.343353 39.660721,399.970825 29.697416,390.524841 
	C21.816729,383.053314 17.356535,374.306335 17.937302,363.065033 
	C18.408413,353.946228 18.032934,344.783661 18.032934,334.687286 
	C20.847242,336.911499 23.065916,338.740173 25.361101,340.467102 
	C45.332985,355.494141 68.332947,363.508453 92.353165,368.903107 
	C128.271194,376.969940 164.575668,378.262177 201.115570,374.257477 
	C202.439056,374.112457 203.771851,374.052277 205.534958,374.472290 
	C205.945633,391.553192 205.921646,408.114410 205.897659,424.675598 
z"/>
<path fill="#F7BF07" opacity="1.000000" stroke="none" 
	d="
M478.690002,450.701233 
	C478.794952,444.877869 478.985291,439.054596 478.990662,433.231140 
	C479.020355,401.093170 479.063385,368.954926 478.922577,336.817566 
	C478.906891,333.246796 477.755707,329.681030 477.045746,325.755951 
	C493.111023,324.376282 496.256439,325.314819 496.108032,342.933533 
	C495.716766,389.385498 495.976105,435.842896 495.975403,482.298157 
	C495.975250,493.948395 493.958313,495.977783 482.387756,495.974609 
	C480.889282,495.974182 479.390778,495.959564 477.434143,495.872711 
	C480.790680,483.234924 478.648834,470.424133 478.389404,456.990234 
	C478.358429,454.419922 478.524231,452.560577 478.690002,450.701233 
z"/>
<path fill="#0377BB" opacity="1.000000" stroke="none" 
	d="
M254.306854,191.878723 
	C255.284973,190.701035 256.526550,189.392166 258.014374,188.488876 
	C268.465546,182.143555 278.407990,175.273987 285.231384,164.740555 
	C289.056305,158.835907 291.069183,152.511673 291.048431,145.453430 
	C290.988190,124.964165 290.336914,104.443840 291.243622,83.994492 
	C292.025726,66.355736 283.950470,54.038605 270.903290,44.052906 
	C264.997681,39.533016 258.407990,35.906918 252.019562,31.561356 
	C268.884766,36.160934 284.469543,43.688942 297.372406,56.009624 
	C304.656403,62.964958 308.470551,71.292793 308.248047,81.777695 
	C307.821014,101.898262 307.835388,122.040161 308.243744,142.161499 
	C308.452362,152.440903 304.727448,160.618286 297.674774,167.561554 
	C285.536530,179.511505 270.554504,186.525696 254.306854,191.878723 
z"/>
<path fill="#0376BA" opacity="1.000000" stroke="none" 
	d="
M254.279266,268.775024 
	C256.100433,267.079590 258.179230,265.234131 260.509735,263.796875 
	C272.422211,256.450165 283.419495,248.171799 288.681854,234.549179 
	C290.085419,230.915695 290.788910,226.830811 290.920685,222.923065 
	C291.234711,213.612305 291.015564,204.283585 291.006775,194.495331 
	C296.449738,190.012527 301.897736,185.996490 307.787201,181.655029 
	C307.913788,183.302567 308.108856,184.685638 308.112183,186.069168 
	C308.137848,196.716904 307.669586,207.389618 308.247864,218.005905 
	C308.896454,229.913208 304.188934,239.228851 295.408325,246.370132 
	C288.750458,251.784958 281.419373,256.516113 273.911774,260.696503 
	C267.861572,264.065430 261.099335,266.155701 254.279266,268.775024 
z"/>
<path fill="#0375BA" opacity="1.000000" stroke="none" 
	d="
M206.304535,424.699341 
	C205.921646,408.114410 205.945633,391.553192 205.971695,374.527466 
	C211.340500,373.119049 216.707245,372.175110 222.527313,371.151459 
	C222.527313,388.169434 222.527313,404.804810 222.527313,422.073608 
	C217.386475,422.934784 212.048935,423.828918 206.304535,424.699341 
z"/>
<path fill="#0377BC" opacity="1.000000" stroke="none" 
	d="
M291.441833,308.012573 
	C290.988281,295.888672 290.999054,283.840424 290.994781,271.312744 
	C296.421173,266.831421 301.862549,262.829498 307.696136,258.539124 
	C307.696136,275.012878 307.696136,291.245728 307.696136,308.088226 
	C302.404083,308.088226 297.155121,308.088226 291.441833,308.012573 
z"/>
<path fill="#0376BA" opacity="1.000000" stroke="none" 
	d="
M206.509369,356.186157 
	C206.041382,349.344879 205.971375,342.556976 205.977829,335.769135 
	C205.989410,323.596161 212.474030,317.042053 224.528168,316.954437 
	C225.687119,316.946014 226.846024,316.927765 228.456085,316.931335 
	C224.170517,323.182739 222.447128,330.222290 222.874908,337.992920 
	C223.156128,343.101288 222.928040,348.237671 222.928040,353.852936 
	C217.359848,354.684235 212.150833,355.461914 206.509369,356.186157 
z"/>
<path fill="#040400" opacity="1.000000" stroke="none" 
	d="
M353.935425,367.905670 
	C365.519653,358.673248 377.947174,356.651276 391.058136,362.826569 
	C404.232758,369.031830 410.458984,380.117065 410.616699,394.474945 
	C410.751831,406.780273 411.247375,419.184814 409.908112,431.361176 
	C409.198730,437.810669 410.350281,441.784119 415.056885,445.800323 
	C419.698120,449.760742 420.166809,454.249054 417.376953,458.105713 
	C414.345520,462.296326 408.771454,462.945343 404.710327,459.290955 
	C402.755829,457.532288 401.285767,455.235229 400.194366,453.908844 
	C393.888855,456.604370 388.961090,459.617584 383.624084,460.831360 
	C363.338501,465.444824 344.376526,451.828491 342.653961,430.743011 
	C341.560608,417.359802 342.161469,403.800415 342.623138,390.341339 
	C342.925995,381.511566 347.139191,374.128967 353.935425,367.905670 
M359.326874,416.485809 
	C359.514191,421.461548 359.106934,426.547729 360.006439,431.391205 
	C362.221985,443.320740 375.894073,448.407623 386.207336,441.169983 
	C385.074341,439.947998 383.987305,438.740326 382.860992,437.570404 
	C381.707764,436.372528 380.461975,435.260315 379.351318,434.025482 
	C376.057617,430.363556 375.800995,425.635406 378.655426,422.280304 
	C381.756256,418.635529 386.289642,418.299805 390.700836,421.392914 
	C391.427979,421.902863 392.142761,422.430389 393.561157,423.452850 
	C393.561157,413.176880 393.715454,403.742889 393.519867,394.316132 
	C393.303284,383.876007 386.206879,376.559662 376.598907,376.469971 
	C366.824829,376.378723 359.571259,383.887299 359.357544,394.532410 
	C359.217346,401.515869 359.328369,408.504395 359.326874,416.485809 
z"/>
<path fill="#040300" opacity="1.000000" stroke="none" 
	d="
M325.158447,431.996124 
	C324.320160,449.556091 311.996338,461.564301 294.868988,461.861084 
	C288.377289,461.973602 281.880920,461.956207 275.388794,461.857941 
	C269.389740,461.767151 265.736237,458.521698 265.639160,453.442932 
	C265.537842,448.142181 269.222015,444.888397 275.554688,444.824310 
	C281.714691,444.761963 287.877289,444.892944 294.036041,444.785309 
	C302.392334,444.639343 307.876373,439.709320 308.070801,432.352478 
	C308.273071,424.700043 302.973480,419.547394 294.388275,419.049408 
	C278.003265,418.098999 265.912506,405.782471 265.614746,389.738678 
	C265.322235,373.974854 276.758606,361.072449 292.961212,359.649628 
	C300.729187,358.967499 308.602081,359.218384 316.417419,359.425171 
	C321.994690,359.572723 325.308380,363.253540 325.132690,368.276245 
	C324.965485,373.056885 321.682312,376.223145 316.208038,376.383789 
	C309.719849,376.574188 303.219849,376.337402 296.729462,376.484039 
	C288.246948,376.675690 282.923096,381.505646 282.760162,388.905853 
	C282.591125,396.584625 287.777588,401.551880 296.499695,402.064606 
	C312.770447,403.021088 324.396912,414.977661 325.158447,431.996124 
z"/>
<path fill="#040300" opacity="1.000000" stroke="none" 
	d="
M478.450989,450.421356 
	C478.524231,452.560577 478.358429,454.419922 478.177429,456.636475 
	C475.890533,460.548889 472.637665,461.987701 468.441315,461.915375 
	C461.110870,461.789062 453.776062,461.940979 446.444275,461.862915 
	C439.305389,461.786926 436.147522,458.597290 436.136200,451.341278 
	C436.093842,424.177307 436.098022,397.013245 436.133820,369.849274 
	C436.142487,363.266846 439.615265,359.270538 444.948914,359.428467 
	C450.105682,359.581177 453.168182,363.359100 453.176971,369.822723 
	C453.208221,392.820435 453.189545,415.818207 453.189728,438.815979 
	C453.189728,440.609558 453.189697,442.403168 453.189697,444.813141 
	C458.747528,444.813141 463.857849,444.894867 468.964264,444.787811 
	C473.195221,444.699097 476.448792,446.075836 478.450989,450.421356 
z"/>
<path fill="#000203" opacity="1.000000" stroke="none" 
	d="
M238.045456,45.972286 
	C248.347031,51.021172 258.837677,55.108994 268.024780,61.172001 
	C278.229950,67.906906 284.289459,77.842270 282.073730,90.991867 
	C280.635468,99.527550 275.536957,105.801918 269.006073,111.001854 
	C255.525848,121.734856 239.622116,127.156578 223.149048,130.817474 
	C179.324814,140.556763 135.614487,140.090500 92.268112,127.907921 
	C79.242729,124.247116 66.777138,119.106064 56.285904,110.188095 
	C39.353123,95.794563 39.353142,76.677490 56.387566,62.377453 
	C69.075584,51.726128 84.328712,46.335407 100.093063,42.606449 
	C145.328125,31.906384 190.454041,32.324768 235.310486,45.047478 
	C236.108261,45.273750 236.877182,45.601841 238.045456,45.972286 
M193.182938,118.880501 
	C201.064194,117.579277 209.021347,116.621849 216.810333,114.902573 
	C231.334915,111.696510 245.553345,107.464706 257.612000,98.221596 
	C268.030884,90.235390 268.266724,82.005630 257.490509,74.516220 
	C250.743851,69.827347 243.134476,66.047531 235.430283,63.134220 
	C216.249695,55.881145 196.067291,53.396873 175.698776,52.533516 
	C146.711548,51.304836 118.012688,53.327492 90.529655,63.314541 
	C82.077728,66.385887 73.914131,71.064827 66.668938,76.426971 
	C58.481506,82.486458 58.770817,89.307373 66.328423,96.063034 
	C69.763123,99.133286 73.601944,102.207832 77.814445,103.861969 
	C88.457336,108.041130 99.204163,112.310539 110.290115,114.936043 
	C137.289581,121.330345 164.756729,121.425766 193.182938,118.880501 
z"/>
<path fill="#F9D700" opacity="1.000000" stroke="none" 
	d="
M359.326904,415.988220 
	C359.328369,408.504395 359.217346,401.515869 359.357544,394.532410 
	C359.571259,383.887299 366.824829,376.378723 376.598907,376.469971 
	C386.206879,376.559662 393.303284,383.876007 393.519867,394.316132 
	C393.715454,403.742889 393.561157,413.176880 393.561157,423.452850 
	C392.142761,422.430389 391.427979,421.902863 390.700836,421.392914 
	C386.289642,418.299805 381.756256,418.635529 378.655426,422.280304 
	C375.800995,425.635406 376.057617,430.363556 379.351318,434.025482 
	C380.461975,435.260315 381.707764,436.372528 382.860992,437.570404 
	C383.987305,438.740326 385.074341,439.947998 386.207336,441.169983 
	C375.894073,448.407623 362.221985,443.320740 360.006439,431.391205 
	C359.106934,426.547729 359.514191,421.461548 359.326904,415.988220 
z"/>
<path fill="#0376BB" opacity="1.000000" stroke="none" 
	d="
M192.728668,118.913643 
	C164.756729,121.425766 137.289581,121.330345 110.290115,114.936043 
	C99.204163,112.310539 88.457336,108.041130 77.814445,103.861969 
	C73.601944,102.207832 69.763123,99.133286 66.328423,96.063034 
	C58.770817,89.307373 58.481506,82.486458 66.668938,76.426971 
	C73.914131,71.064827 82.077728,66.385887 90.529655,63.314541 
	C118.012688,53.327492 146.711548,51.304836 175.698776,52.533516 
	C196.067291,53.396873 216.249695,55.881145 235.430283,63.134220 
	C243.134476,66.047531 250.743851,69.827347 257.490509,74.516220 
	C268.266724,82.005630 268.030884,90.235390 257.612000,98.221596 
	C245.553345,107.464706 231.334915,111.696510 216.810333,114.902573 
	C209.021347,116.621849 201.064194,117.579277 192.728668,118.913643 
z"/>
</svg>